<svg xmlns="http://www.w3.org/2000/svg" xmlns:xlink="http://www.w3.org/1999/xlink"><defs><style>
    .sprite-symbol-usage {display: none;}
    .sprite-symbol-usage:target {display: inline;}
  </style><symbol viewBox="0 0 344 67" id="1c_bitrix">
  <g fill="none" fill-rule="evenodd">
    <path fill="#231F20" d="M134.9501,31.543 C132.2141,31.543 129.9931,33.762 129.9931,36.496 C129.9931,39.236 132.2141,41.453 134.9501,41.453 C137.6881,41.453 139.9061,39.236 139.9061,36.496 C139.9061,33.762 137.6881,31.543 134.9501,31.543 Z M336.6371,27.906 C339.8871,27.906 342.2641,29.725 343.8221,31.543 L343.8221,22.76 C341.2691,21.029 338.1931,20.336 335.5181,20.336 C327.3021,20.336 320.1631,26.219 320.1631,36.34 C320.1631,46.031 326.6511,52.348 335.6461,52.348 C338.2411,52.348 341.0951,51.955 343.8221,50.098 L343.8221,41.484 C342.2641,43.088 339.8021,44.777 336.6371,44.777 C331.7961,44.777 328.8961,41.188 328.8961,36.6 C328.8961,31.625 331.9681,27.906 336.6371,27.906 Z M321.0921,21.203 L311.1431,21.203 L302.0141,33.918 L302.0141,21.203 L293.5381,21.203 L293.5411,51.482 L302.0141,51.482 L302.0141,38.459 L310.7921,51.482 L321.3961,51.482 L309.5851,35.865 L321.0921,21.203 Z M268.5041,39.371 L268.5041,21.203 L260.3291,21.203 L260.3291,51.482 L268.6341,51.482 L280.3571,33.313 L280.3571,51.482 L288.5321,51.482 L288.5321,21.203 L280.2251,21.203 L268.5041,39.371 Z M243.9381,34.826 L241.5201,34.826 L241.5201,27.865 L243.9381,27.865 C247.5721,27.865 248.0891,29.809 248.0891,31.324 C248.0891,32.621 247.7011,34.826 243.9381,34.826 Z M245.7961,21.203 L233.0381,21.203 L233.0381,51.482 L241.5201,51.482 L241.5201,41.484 L245.7961,41.484 C254.3631,41.484 256.8291,35.522 256.8291,31.324 C256.8291,27.17 254.4061,21.203 245.7961,21.203 Z M207.7801,28.467 L214.4371,28.467 L214.4371,51.482 L222.9181,51.482 L222.9181,28.467 L229.5771,28.467 L229.5771,21.203 L207.7801,21.203 L207.7801,28.467 Z M184.2891,39.371 L184.2891,21.203 L176.1161,21.203 L176.1161,51.482 L184.4231,51.482 L196.1401,33.313 L196.1401,51.482 L204.3171,51.482 L204.3171,21.203 L196.0141,21.203 L184.2891,39.371 Z M159.0301,45.422 L155.3981,45.422 L155.3981,39.066 L159.0301,39.066 C161.7131,39.066 163.2711,39.846 163.2711,42.227 C163.2711,44.647 161.6711,45.422 159.0301,45.422 Z M159.8541,33.01 L155.3981,33.01 L155.3981,28.467 L169.2821,28.467 L169.2821,21.203 L146.9211,21.203 L146.9201,51.4820255 L159.8541,51.482 C162.0571,51.482 171.7481,51.566 171.7481,42.096 C171.7481,32.967 162.1461,33.01 159.8541,33.01 Z M99.4711,36.34 C99.4711,46.031 105.9591,52.348 114.9551,52.348 C117.5531,52.348 120.4071,51.955 123.1331,50.098 L123.1331,41.484 C121.5711,43.088 119.1061,44.777 115.9501,44.777 C111.1041,44.777 108.2081,41.188 108.2081,36.6 C108.2081,31.625 111.2781,27.906 115.9501,27.906 C119.1931,27.906 121.5711,29.725 123.1331,31.543 L123.1331,22.76 C120.5751,21.029 117.5071,20.336 114.8251,20.336 C106.6061,20.336 99.4711,26.219 99.4711,36.34 Z M81.7211,28.166 L86.3521,28.166 L86.3521,51.482 L94.1821,51.482 L94.1821,21.203 L81.7211,21.203 L81.7211,28.166 Z" />
    <path fill="#D91935" d="M33.289,0.0001 C30.809,0.0001 28.397,0.2791 26.073,0.7951 L26.073,33.3141 C26.073,37.2991 29.322,40.5491 33.308,40.5491 C37.292,40.5491 40.54,37.2991 40.54,33.3161 C40.54,29.4881 37.549,26.3461 33.789,26.0961 L33.789,20.3051 C40.737,20.5571 46.328,26.3051 46.328,33.3161 C46.328,40.4861 40.479,46.3381 33.308,46.3381 C26.134,46.3381 20.286,40.4861 20.286,33.3141 L20.286,2.6351 C19.464,2.9841 18.661,3.3711 17.874,3.7871 L17.874,33.3141 C17.875,41.8131 24.809,48.7441 33.308,48.7441 C41.808,48.7441 48.739,41.8131 48.739,33.3161 C48.739,24.9771 42.069,18.1481 33.789,17.8911 L33.789,12.1021 C45.255,12.3611 54.524,21.7911 54.524,33.3161 C54.524,45.0041 44.993,54.5331 33.308,54.5331 C21.62,54.5331 12.086,45.0041 12.086,33.3141 L12.086,7.6271 C4.706,13.7301 0,22.9591 0,33.2891 C0,51.6741 14.904,66.5821 33.29,66.5821 C51.679,66.5821 66.579,51.6741 66.579,33.2891 C66.579,14.9041 51.679,0.0001 33.289,0.0001" />
  </g>
</symbol><symbol viewBox="0 0 512 407.864" id="bootstrap5"><path d="m106.344 0c-29.214 0-50.831 25.57-49.863 53.3.929 26.641-.278 61.145-8.964 89.283-8.717 28.217-23.449 46.098-47.517 48.393v25.912c24.068 2.3 38.8 20.172 47.516 48.393 8.687 28.138 9.893 62.642 8.964 89.283-.968 27.726 20.649 53.3 49.868 53.3h299.347c29.214 0 50.827-25.57 49.859-53.3-.929-26.641.278-61.145 8.964-89.283 8.717-28.221 23.413-46.1 47.482-48.393v-25.912c-24.068-2.3-38.764-20.172-47.482-48.393-8.687-28.134-9.893-62.642-8.964-89.283.968-27.726-20.645-53.3-49.859-53.3h-299.355zm240.775 251.067c0 38.183-28.481 61.34-75.746 61.34h-80.458a8.678 8.678 0 0 1 -8.678-8.678v-199.593a8.678 8.678 0 0 1 8.678-8.678h80c39.411 0 65.276 21.348 65.276 54.124 0 23.005-17.4 43.6-39.567 47.208v1.2c30.176 3.31 50.495 24.21 50.495 53.077zm-84.519-128.1h-45.876v64.8h38.639c29.87 0 46.34-12.028 46.34-33.527-.003-20.148-14.163-31.273-39.103-31.273zm-45.876 90.511v71.411h47.564c31.1 0 47.573-12.479 47.573-35.931s-16.935-35.484-49.573-35.484h-45.564z" fill="#7952b3" fill-rule="evenodd" /></symbol><symbol fill="none" viewBox="0 0 124 141.53" id="css"><path d="M10.383 126.892L0 0l124 .255-10.979 126.637-50.553 14.638z" fill="#1b73ba" /><path d="M62.468 129.275V12.085l51.064.17-9.106 104.85z" fill="#1c88c7" /><path d="M100.851 27.064H22.298l2.128 15.318h37.276l-36.68 15.745 2.127 14.808h54.043l-1.958 20.68-18.298 3.575-16.595-4.255-1.277-11.745H27.83l2.042 24.426 32.681 9.106 31.32-9.957 4-47.745H64.765l36.085-14.978z" fill="#fff" /></symbol><symbol aria-hidden="true" viewBox="0 0 16 16" class="octicon octicon-mark-github v-align-middle" id="github">
    <path fill-rule="evenodd" d="M8 0C3.58 0 0 3.58 0 8c0 3.54 2.29 6.53 5.47 7.59.4.07.55-.17.55-.38 0-.19-.01-.82-.01-1.49-2.01.37-2.53-.49-2.69-.94-.09-.23-.48-.94-.82-1.13-.28-.15-.68-.52-.01-.53.63-.01 1.08.58 1.23.82.72 1.21 1.87.87 2.33.66.07-.52.28-.87.51-1.07-1.78-.2-3.64-.89-3.64-3.95 0-.87.31-1.59.82-2.15-.08-.2-.36-1.02.08-2.12 0 0 .67-.21 2.2.82.64-.18 1.32-.27 2-.27.68 0 1.36.09 2 .27 1.53-1.04 2.2-.82 2.2-.82.44 1.1.16 1.92.08 2.12.51.56.82 1.27.82 2.15 0 3.07-1.87 3.75-3.65 3.95.29.25.54.73.54 1.48 0 1.07-.01 1.93-.01 2.2 0 .21.15.46.55.38A8.013 8.013 0 0016 8c0-4.42-3.58-8-8-8z" />
</symbol><symbol fill="none" viewBox="0 0 124 141.53199999999998" id="html"><path d="M10.383 126.894L0 0l124 .255-10.979 126.639-50.553 14.638z" fill="#e34f26" /><path d="M62.468 129.277V12.085l51.064.17-9.106 104.851z" fill="#ef652a" /><path d="M99.49 41.362l1.446-15.49H22.383l4.34 47.49h54.213L78.81 93.617l-17.362 4.68-17.617-5.106-.936-12.085H27.319l2.128 24.681 32 8.936 32.255-8.936 4.34-48.17H41.107L39.49 41.362z" fill="#fff" /></symbol><symbol viewBox="0 0 1052 1052" id="javascript"><path fill="#f0db4f" d="M0 0h1052v1052H0z" /><path d="M965.9 801.1c-7.7-48-39-88.3-131.7-125.9-32.2-14.8-68.1-25.399-78.8-49.8-3.8-14.2-4.3-22.2-1.9-30.8 6.9-27.9 40.2-36.6 66.6-28.6 17 5.7 33.1 18.801 42.8 39.7 45.4-29.399 45.3-29.2 77-49.399-11.6-18-17.8-26.301-25.4-34-27.3-30.5-64.5-46.2-124-45-10.3 1.3-20.699 2.699-31 4-29.699 7.5-58 23.1-74.6 44-49.8 56.5-35.6 155.399 25 196.1 59.7 44.8 147.4 55 158.6 96.9 10.9 51.3-37.699 67.899-86 62-35.6-7.4-55.399-25.5-76.8-58.4-39.399 22.8-39.399 22.8-79.899 46.1 9.6 21 19.699 30.5 35.8 48.7 76.2 77.3 266.899 73.5 301.1-43.5 1.399-4.001 10.6-30.801 3.199-72.101zm-394-317.6h-98.4c0 85-.399 169.4-.399 254.4 0 54.1 2.8 103.7-6 118.9-14.4 29.899-51.7 26.2-68.7 20.399-17.3-8.5-26.1-20.6-36.3-37.699-2.8-4.9-4.9-8.7-5.601-9-26.699 16.3-53.3 32.699-80 49 13.301 27.3 32.9 51 58 66.399 37.5 22.5 87.9 29.4 140.601 17.3 34.3-10 63.899-30.699 79.399-62.199 22.4-41.3 17.6-91.3 17.4-146.6.5-90.2 0-180.4 0-270.9z" fill="#323330" /></symbol><symbol stroke-linejoin="round" stroke-miterlimit="1.414" viewBox="0,0,381,79" id="joomla">
 <g fill="#3b3a40" transform="translate(-35 -35)">
  <path d="m154 52.3v31.3c0 2.8.2 5.4-2.3 7.3-2.3 1.9-6.2 2.5-10.4 2.5-6.4 0-13.2-1.5-13.2-1.5l-1.5 4s9.5 2 16.4 2.1c5.8.1 10.9-1.2 13.7-4.4 2.3-2.6 3-5.6 2.9-10.7v-30.6z" />
  <path d="m200.7 69.6c-4.2-2.3-9.3-3.5-15.1-3.5-5.7 0-10.8 1.2-15.1 3.5-5.4 2.9-8.1 7.2-8.1 12.6s2.7 9.7 8.1 12.6c4.3 2.3 9.3 3.5 15.1 3.5 5.7 0 10.8-1.2 15-3.5 5.4-2.9 8.1-7.2 8.1-12.6 0-5.5-2.7-9.7-8-12.6m-3.3 22c-3.3 1.9-7.2 2.8-11.8 2.8-4.7 0-8.7-.9-11.9-2.7-3.9-2.2-5.8-5.3-5.8-9.5 0-4.1 2-7.3 5.8-9.5 3.2-1.8 7.2-2.7 11.9-2.7 4.6 0 8.6.9 11.9 2.7 3.8 2.2 5.8 5.4 5.8 9.5-.1 4-2 7.2-5.9 9.4z" />
  <path d="m249.9 69.6c-4.2-2.3-9.3-3.5-15.1-3.5-5.7 0-10.8 1.2-15.1 3.5-5.4 2.9-8.1 7.2-8.1 12.6s2.7 9.7 8.1 12.6c4.3 2.3 9.3 3.5 15.1 3.5 5.7 0 10.8-1.2 15-3.5 5.4-2.9 8.1-7.2 8.1-12.6 0-5.5-2.7-9.7-8-12.6m-3.3 22c-3.3 1.9-7.2 2.8-11.8 2.8-4.7 0-8.7-.9-11.9-2.7-3.9-2.2-5.8-5.3-5.8-9.5 0-4.1 2-7.3 5.8-9.5 3.2-1.8 7.2-2.7 11.9-2.7 4.6 0 8.6.9 11.9 2.7 3.8 2.2 5.8 5.4 5.8 9.5-.1 4-2 7.2-5.9 9.4z" />
  <path d="m317.8 68.8c-3-1.8-6.9-2.7-11.5-2.7-5.9 0-10.6 1.8-14.2 5.4-3.4-3.6-8.2-5.4-14.1-5.4-4.8 0-8.7 1-11.7 2.9v-2.5h-5.3v31.1h5.3v-21.2c.4-1.5 1.4-2.9 3-4.1 2.2-1.5 5-2.3 8.5-2.3 3.1 0 5.7.6 7.9 1.9 2.6 1.5 3.8 3.5 3.8 6.3v19.6h5.2v-19.7c0-2.8 1.2-4.8 3.8-6.3 2.2-1.2 4.9-1.9 8-1.9s5.8.6 8 1.9c2.6 1.5 3.8 3.5 3.8 6.3v19.6h5.3v-18.9c-.1-4.4-2.1-7.8-5.8-10" />
  <path d="m327.7 52.3v45.4h5.3v-45.4z" />
  <path d="m392.1 52.3v35.1h5.3v-35.1z" />
  <path d="m378.2 66.5v5.3c-4.5-3.8-10.5-5.8-17.9-5.8-5.9 0-11 1.1-15.2 3.4-5.2 2.9-7.9 7.1-7.9 12.7 0 5.5 2.7 9.8 8.1 12.6 4.2 2.3 9.3 3.4 15.2 3.4 2.9 0 5.8-.3 8.4-1 3.7-1 6.8-2.4 9.2-4.3v4.8h5.3v-31.1zm-35.4 15.7c0-4.1 2-7.3 5.8-9.5 3.2-1.8 7.3-2.7 12-2.7 5.8 0 10.3 1.4 13.5 4.2 2.8 2.5 4.2 5.7 4.2 9.6v3.7c-2.2 2.5-5.5 4.4-9.7 5.7-2.5.8-5.2 1.2-8 1.2-4.8 0-8.8-.9-12-2.6-3.9-2.3-5.8-5.4-5.8-9.6z" />
  <path d="m394.8 91.8c-3.7 0-4.2 1.9-4.2 3.1s.6 3.1 4.2 3.1c3.7 0 4.2-2 4.2-3.1s-.6-3.1-4.2-3.1z" />
  <path d="m413.8 57.9c0 3.1-2 5.7-5.6 5.7s-5.6-2.6-5.6-5.7 2-5.7 5.6-5.7 5.6 2.6 5.6 5.7zm-10 0c0 2.6 1.6 4.6 4.4 4.6s4.4-2 4.4-4.6-1.6-4.6-4.4-4.6-4.4 2-4.4 4.6zm5.5.7c2.2-.4 2-3.7-.5-3.7h-2.7v5.8h1.1v-2h1l1.6 2h1.2v-.2zm-.5-2.7c1.3 0 1.3 1.9 0 1.9h-1.6v-1.9z" />
 </g>
 <g transform="translate(-35 -35)">
  <path d="m51 75.2-1.4-1.4c-4.5-4.5-5.8-10.8-4.2-16.5-4.5-1-7.8-5-7.8-9.8 0-5.5 4.5-10 10-10 5 0 9.1 3.6 9.9 8.4 5.4-1.3 11.3.2 15.5 4.4l.6.6-7.4 7.4-.6-.6c-2.4-2.4-6.3-2.4-8.7 0s-2.4 6.3 0 8.7l16.6 16.6-7.4 7.4-7.8-7.8z" fill="#7ac143" />
  <path d="m59.3 67 16.6-16.6c4.4-4.4 10.8-5.8 16.4-4.2.7-4.9 4.9-8.6 9.9-8.6 5.5 0 10 4.5 10 10 0 5.1-3.8 9.3-8.7 9.9 1.6 5.6.2 11.9-4.2 16.3l-.6.6-7.2-7.4.6-.6c2.4-2.4 2.4-6.3 0-8.7s-6.3-2.4-8.7 0l-16.6 16.6z" fill="#f9a541" />
  <path d="m92.6 104.3c-5.7 1.7-12.1.4-16.6-4.1l-.6-.6 7.4-7.4.6.6c2.4 2.4 6.3 2.4 8.7 0s2.4-6.3 0-8.7l-16.6-16.6 7.4-7.4 16.7 16.7c4.2 4.2 5.7 10.2 4.4 15.7 4.9.7 8.6 4.9 8.6 9.9 0 5.5-4.5 10-10 10-5-.1-9.1-3.6-10-8.1z" fill="#f44321" />
  <path d="m89.7 83.5-16.6 16.6c-4.3 4.3-10.3 5.7-15.7 4.4-1 4.5-5 7.8-9.8 7.8-5.5 0-10-4.5-10-10 0-4.7 3.3-8.7 7.7-9.7-1.4-5.6 0-11.6 4.3-15.9l.6-.6 7.4 7.4-.6.6c-2.4 2.4-2.4 6.3 0 8.7s6.3 2.4 8.7 0l16.6-16.6z" fill="#5091cd" />
 </g>
</symbol><symbol fill-rule="evenodd" stroke-linejoin="round" stroke-miterlimit="1.4142" viewBox="-59.96544 -19.409525 519.70048 116.45715" id="opencart">
    <path d="M248.385 255.483c0 37.322-11.097 68.759-33.37 94.208-23.243 26.664-53.445 40.05-90.416 40.05-37.069 0-67.173-13.386-90.417-40.05C11.9 324.242.72 292.805.72 255.483c0-37.425 11.18-68.852 33.462-94.209 23.502-26.415 53.705-39.616 90.417-39.616 36.971 0 67.173 13.201 90.416 39.616 22.273 25.357 33.37 56.784 33.37 94.209zm-73.61 0c0-16.905-4.046-31.174-12.146-42.71-9.063-13.113-21.746-19.627-38.03-19.627-16.29 0-28.968 6.514-38.04 19.627-8.184 11.536-12.234 25.805-12.234 42.71 0 16.811 4.05 31.251 12.234 43.134 9.072 13.113 21.75 19.637 38.04 19.637 16.284 0 28.967-6.524 38.03-19.637 8.1-11.883 12.146-26.323 12.146-43.134zm339.76 0c0 34.862-10.038 65.323-30.202 91.383-21.57 28.523-49.391 42.875-83.199 42.875-23.863 0-44.106-6.954-60.659-20.686 0 3.162.352 10.824 1.059 23.073.703 12.312 1.05 22.35 1.05 30.275 0 43.769-13.03 65.597-39.084 65.597-10.658 0-19.369-3.787-26.328-11.273-6.866-7.564-10.302-16.65-10.302-27.377V164.71c0-10.39 3.524-19.374 10.566-26.938 7.041-7.486 15.762-11.263 26.151-11.263 15.665 0 27.114 7.818 34.336 23.414 15.406-18.841 36.449-28.265 63.123-28.265 33.896 0 61.629 14.079 83.287 42.349 20.076 26.152 30.202 56.613 30.202 91.476zm-73.61 0c0-16.905-4.128-31.174-12.229-42.71-9.077-13.113-21.75-19.627-38.04-19.627-16.284 0-28.962 6.514-38.034 19.627-8.101 11.536-12.147 25.805-12.147 42.71 0 16.811 4.046 31.251 12.147 43.134 9.072 13.113 21.75 19.637 38.034 19.637 16.29 0 28.963-6.524 38.04-19.637 8.101-11.883 12.229-26.323 12.229-43.134zm341.429-7.916c0 12.313-2.908 20.765-8.72 25.528-5.807 4.66-14.874 7.037-27.113 7.037H613.663c0 14.088 6.607 24.912 19.812 32.476 10.653 5.91 23.683 8.911 39.089 8.911 11.981 0 26.328-3.977 43.144-11.8 16.817-7.93 27.641-11.81 32.316-11.81 8.535 0 15.752 3.085 21.74 9.424 5.895 6.256 8.896 13.825 8.896 22.545 0 20.15-15.054 35.839-45.174 47.102-22.975 8.447-46.306 12.761-70.16 12.761-38.386 0-69.379-12.761-93.061-38.2-23.688-25.45-35.566-57.409-35.566-96.058 0-36.81 12.322-68.237 36.971-94.463 24.561-26.249 55.12-39.362 91.564-39.362 33.896 0 62.244 12.415 84.965 37.24 22.707 24.834 34.155 54.412 34.155 88.669zm-73.6-18.5c-.356-11.273-5.548-21.482-15.586-30.734-10.039-9.238-20.687-13.81-31.96-13.81-11.619 0-22.452 4.572-32.486 13.81-10.033 9.252-15.059 19.461-15.059 30.734zm320.906 117.174c0 10.751-3.43 19.813-10.29 27.386-6.96 7.491-15.68 11.278-26.331 11.278-25.708 0-38.567-20.428-38.567-61.19 0-7.837.532-20.159 1.586-37.152 1.147-16.909 1.679-29.319 1.679-37.156 0-43.237-14.001-64.884-41.91-64.884-27.913 0-41.821 21.647-41.821 64.884 0 7.837.439 20.247 1.23 37.156.883 16.993 1.322 29.315 1.322 37.152 0 40.762-12.678 61.19-38.03 61.19-10.658 0-19.369-3.787-26.24-11.278-6.954-7.573-10.389-16.635-10.389-27.386V164.632c0-10.673 3.435-19.725 10.389-27.036 6.871-7.398 15.675-11.087 26.328-11.087 17.607 0 29.841 7.818 36.707 23.414 11.888-18.841 32.926-28.265 63.04-28.265 27.909 0 50.098 7.389 66.387 22.092 16.64 15.772 24.91 37.42 24.91 64.982zm230.93-7.823c0 16.636-10.81 29.837-32.48 39.533a130.8152 130.8152 0 01-54.67 11.79c-37.08 0-67.18-13.386-90.42-40.05-22.28-25.449-33.46-56.886-33.46-94.208 0-37.425 11.36-69.023 34.16-94.911 22.8-25.967 52.64-38.914 89.72-38.914 21.39 0 39.79 3.168 55.12 9.424 21.38 8.452 32.03 21.652 32.03 39.616 0 9.062-2.81 17.075-8.45 24.034-5.63 6.866-12.86 10.389-21.65 10.389-6 0-14.63-2.025-25.89-5.978-11.27-4.06-20.24-5.997-26.84-5.997-17.53 0-31.18 6.251-40.95 18.748-9.07 11.273-13.65 25.713-13.65 43.589 0 16.811 4.05 31.08 12.25 42.612 9.05 13.473 21.83 20.159 38.11 20.159 7.23 0 17.08-2.113 29.67-6.437 12.6-4.211 21.67-6.412 27.3-6.412 8.19 0 15.22 3.514 21.22 10.385 5.9 6.954 8.88 14.43 8.88 22.628zm267.56 7.823c0 10.751-3.43 19.813-10.3 27.386-6.95 7.491-15.75 11.278-26.42 11.278-16.02 0-27.46-7.842-34.33-23.424-15.4 18.847-36.45 28.26-63.12 28.26-34.15 0-62.15-14.352-83.82-42.875-19.72-26.06-29.65-56.521-29.65-91.383 0-34.863 9.93-65.324 29.65-91.476 22.02-28.27 49.92-42.349 83.82-42.349 26.67 0 47.72 9.424 63.12 28.265 6.87-15.596 18.31-23.414 34.33-23.414 10.4 0 19.12 3.777 26.17 11.263 7.03 7.564 10.55 16.46 10.55 26.86zm-73.6-90.758c0-16.905-4.04-31.174-12.15-42.71-9.42-13.113-22.1-19.627-38.03-19.627-16.29 0-28.96 6.514-38.04 19.627-8.18 11.536-12.22 25.805-12.22 42.71 0 16.811 3.94 31.251 11.77 43.134 9.35 13.113 22.2 19.637 38.49 19.637 16.28 0 28.96-6.524 38.03-19.637 8.11-11.883 12.15-26.323 12.15-43.134zm261.4-95.707c0 15.758-7.66 26.586-22.98 32.481-14.17 4.763-28.27 9.614-42.35 14.616-15.42 8.813-23.07 25.186-23.07 48.961v90.407c0 10.751-3.53 19.813-10.38 27.386-6.97 7.491-15.77 11.278-26.42 11.278-10.73 0-19.55-3.787-26.4-11.278-6.97-7.573-10.4-16.635-10.4-27.386V164.632c0-10.673 3.43-19.725 10.3-27.036 6.95-7.398 15.77-11.087 26.42-11.087 17.6 0 29.83 7.818 36.71 23.414 15.76-18.841 32.67-28.265 50.89-28.265 10.38 0 19.28 3.778 26.67 11.263 7.3 7.574 11.01 16.553 11.01 26.855zm192.02 3.348c0 16.372-6.43 26.674-19.18 31.085-6.27 2.196-19.4 3.338-39.38 3.338v148.694c0 10.751-3.52 19.813-10.37 27.386-6.97 7.491-15.77 11.278-26.42 11.278-10.38 0-19.2-3.787-26.25-11.278-7.03-7.573-10.55-16.635-10.55-27.386V197.547c-15.15 0-26.15-1.937-33.1-5.714-9.5-5.285-14.2-14.884-14.2-28.709 0-13.816 4.85-23.239 14.62-28.265 6.61-3.699 17.53-5.627 32.68-5.627v-31.52c0-37.063 12.22-55.549 36.8-55.549 24.47 0 36.79 18.486 36.79 55.549v31.52c19.98 0 33.11 1.142 39.38 3.338 12.75 4.402 19.18 14.625 19.18 30.554zm591.31-44.706c-.2-22.599-41.96-32.857-150.06-32.857-253.64 0-317.99-10.834-386.85-83.297 28.97 43.51 44.82 125.119 312.91 121.058 279.71-4.309 109.07 72.122 59.42 158.474 89.54-79.915 164.31-132.59 164.58-163.051zm-356.42 232.059c-.01 21.006-17.29 38.288-38.3 38.293-21.22 0-38.38-17.158-38.38-38.293v-.03c0-21.041 17.31-38.356 38.36-38.356h.02c21.15 0 38.3 17.163 38.3 38.386zm174.67 0c-.01 21.006-17.29 38.288-38.3 38.293-21.2 0-38.37-17.158-38.37-38.293v-.03c0-21.041 17.31-38.356 38.35-38.356h.02c21.15 0 38.3 17.163 38.3 38.386z" fill="#3ecaf0" fill-rule="nonzero" transform="matrix(.16 0 0 .15984 -.1152 -.3619)" />
    <defs id="opencart_defs3925">
        
</defs>
</symbol><linearGradient gradientTransform="matrix(0 -384.236 384.236 0 1250 386.501)" gradientUnits="userSpaceOnUse" y2="0" x2="1" y1="0" x1="0" id="opencart__Linear1">
    <stop id="opencart_stop3920" offset="0" stop-color="#04b6f0" stop-opacity="1" />
    <stop id="opencart_stop3922" offset="1" stop-color="#3ecaf0" stop-opacity="1" />
</linearGradient><symbol viewBox="0 0 70 70" id="phpstorm"><style>#phpstorm .st0{fill:url(#phpstorm_SVGID_1_)}#phpstorm .st1{fill:url(#phpstorm_SVGID_2_)}#phpstorm .st2{fill:url(#phpstorm_SVGID_3_)}#phpstorm .st3{fill:url(#phpstorm_SVGID_4_)}#phpstorm .st4{fill:#fff}</style><path class="st0" d="M39.6 15.2l-3.3-10L11.9 0 0 13.5l37.2 19z" /><path class="st1" d="M28 41.4l-.7-20.8L0 13.5l6.7 40.1 21.3-.2z" /><path class="st2" d="M22.1 41l1.3-16.5L43.2 4.2l17.7 3.2L70 30.1l-9.5 9.4L45 37l-9.6 10.1z" /><path class="st3" d="M43.2 4.2L14.8 29.4l5.5 32.4L43.9 70 70 54.4z" /><g><path d="M13.4 13.4h43.2v43.2H13.4z" /><path class="st4" d="M17.5 48.5h16.2v2.7H17.5zM17.3 19h7.3c4.3 0 6.9 2.5 6.9 6.2v.1c0 4.2-3.2 6.3-7.3 6.3h-3V37h-3.9V19zm7.1 9c2 0 3.1-1.2 3.1-2.7v-.1c0-1.8-1.2-2.7-3.2-2.7h-3V28h3.1zM32.5 34.4l2.3-2.8c1.6 1.3 3.3 2.2 5.4 2.2 1.6 0 2.6-.6 2.6-1.7V32c0-1-.6-1.5-3.6-2.3-3.6-.9-6-1.9-6-5.5v-.1c0-3.3 2.6-5.4 6.3-5.4 2.6 0 4.9.8 6.7 2.3l-2.1 3c-1.6-1.1-3.2-1.8-4.7-1.8s-2.3.7-2.3 1.6v.1c0 1.2.8 1.6 3.9 2.4 3.6 1 5.7 2.3 5.7 5.4v.1c0 3.6-2.7 5.6-6.6 5.6-2.7-.1-5.4-1.1-7.6-3" /></g></symbol><linearGradient id="phpstorm_SVGID_1_" gradientUnits="userSpaceOnUse" x1=".551" y1="25.16" x2="29.941" y2="63.98" gradientTransform="matrix(1 0 0 -1 0 72)"><stop offset=".016" stop-color="#765af8" /><stop offset=".382" stop-color="#b345f1" /><stop offset=".758" stop-color="#fa3293" /><stop offset=".941" stop-color="#ff318c" /></linearGradient><linearGradient id="phpstorm_SVGID_2_" gradientUnits="userSpaceOnUse" x1="2.709" y1="23.637" x2="32.052" y2="62.394" gradientTransform="matrix(1 0 0 -1 0 72)"><stop offset=".016" stop-color="#765af8" /><stop offset=".382" stop-color="#b345f1" /><stop offset=".758" stop-color="#fa3293" /><stop offset=".941" stop-color="#ff318c" /></linearGradient><linearGradient id="phpstorm_SVGID_3_" gradientUnits="userSpaceOnUse" x1="50.856" y1="25.595" x2="34.273" y2="64.952" gradientTransform="matrix(1 0 0 -1 0 72)"><stop offset=".183" stop-color="#765af8" /><stop offset=".238" stop-color="#8655f6" /><stop offset=".345" stop-color="#9f4cf3" /><stop offset=".443" stop-color="#ae47f2" /><stop offset=".522" stop-color="#b345f1" /></linearGradient><linearGradient id="phpstorm_SVGID_4_" gradientUnits="userSpaceOnUse" x1="63.251" y1="14.642" x2="24.683" y2="44.465" gradientTransform="matrix(1 0 0 -1 0 72)"><stop offset=".016" stop-color="#765af8" /><stop offset=".382" stop-color="#b345f1" /></linearGradient><symbol viewBox="0 0 512 384" id="sass"><path fill="#CF649A" d="M440.6 220.6c-17.9.101-33.4 4.4-46.4 10.801-4.8-9.5-9.6-17.801-10.399-24-.9-7.2-2-11.601-.9-20.2C384 178.6 389 166.4 389 165.4c-.101-.9-1.101-5.3-11.4-5.4s-19.2 2-20.2 4.7-3 8.9-4.3 15.3c-1.8 9.4-20.6 42.7-31.3 60.2-3.5-6.8-6.5-12.8-7.101-17.601-.899-7.199-2-11.6-.899-20.199 1.1-8.601 6.1-20.8 6.1-21.8-.1-.9-1.1-5.3-11.399-5.4-10.301-.1-19.2 2-20.2 4.7s-2.1 9.1-4.3 15.3C281.9 201.4 256.9 257 250.4 271.5c-3.3 7.4-6.199 13.3-8.3 17.3-2.1 4-.1.3-.3.7-1.8 3.4-2.8 5.3-2.8 5.3v.101c-1.4 2.5-2.9 4.899-3.601 4.899-.5 0-1.5-6.7.2-15.899 3.7-19.301 12.7-49.4 12.601-50.5 0-.5 1.699-5.801-5.801-8.5-7.3-2.7-9.899 1.8-10.5 1.8-.6 0-1.1 1.6-1.1 1.6s8.1-33.899-15.5-33.899c-14.8 0-35.2 16.1-45.3 30.8-6.4 3.5-20 10.899-34.4 18.8-5.5 3-11.2 6.2-16.6 9.1L117.9 251.9c-28.6-30.5-81.5-52.1-79.3-93.1.8-14.9 6-54.2 101.601-101.8 78.3-39 141-28.3 151.899-4.5 15.5 34-33.5 97.2-114.899 106.3-31 3.5-47.301-8.5-51.4-13-4.3-4.7-4.9-4.9-6.5-4-2.6 1.4-1 5.6 0 8.1 2.4 6.3 12.4 17.5 29.4 23.1 14.899 4.9 51.3 7.6 95.3-9.4 49.3-19.1 87.8-72.1 76.5-116.4-11.5-45.1-86.3-59.9-157-34.8C121.4 27.4 75.8 50.8 43 81.5 4 117.9-2.2 149.7.4 162.9c9.101 47.1 74 77.8 100 100.5-1.3.699-2.5 1.399-3.6 2-13 6.399-62.5 32.3-74.9 59.699-14 31 2.2 53.301 13 56.301 33.4 9.3 67.6-7.4 86.1-34.9 18.399-27.5 16.2-63.2 7.7-79.5l-.301-.6 10.2-6c6.601-3.9 13.101-7.5 18.8-10.601-3.199 8.7-5.5 19-6.699 34-1.4 17.601 5.8 40.4 15.3 49.4 4.2 3.899 9.2 4 12.3 4 11 0 16-9.101 21.5-20 6.8-13.3 12.8-28.7 12.8-28.7s-7.5 41.7 13 41.7c7.5 0 15-9.7 18.4-14.7v.1s.2-.3.6-1a36.13 36.13 0 0 0 1.2-1.899v-.2c3-5.2 9.7-17.1 19.7-36.8 12.899-25.4 25.3-57.2 25.3-57.2s1.2 7.8 4.9 20.6c2.199 7.601 6.999 15.9 10.699 24-3 4.2-4.8 6.601-4.8 6.601l.1.1c-2.399 3.2-5.1 6.601-7.899 10-10.2 12.2-22.4 26.101-24 30.101-1.9 4.699-1.5 8.199 2.2 11 2.7 2 7.5 2.399 12.6 2 9.2-.601 15.6-2.9 18.8-4.301 5-1.8 10.7-4.5 16.2-8.5 10-7.399 16.1-17.899 15.5-31.899-.3-7.7-2.8-15.3-5.9-22.5.9-1.3 1.801-2.601 2.7-4 15.8-23.101 28-48.5 28-48.5s1.2 7.8 4.9 20.6c1.899 6.5 5.7 13.601 9.1 20.601-14.8 12.1-24.1 26.1-27.3 35.3-5.9 17-1.3 24.7 7.4 26.5 3.899.8 9.5-1 13.699-2.8 5.2-1.7 11.5-4.601 17.301-8.9 10-7.4 19.6-17.7 19.1-31.6-.3-6.4-2-12.7-4.3-18.7 12.6-5.2 28.899-8.2 49.6-5.7 44.5 5.2 53.3 33 51.601 44.6-1.7 11.601-11 18-14.101 20-3.1 1.9-4.1 2.601-3.8 4 .4 2.101 1.8 2 4.5 1.601 3.7-.601 23.4-9.5 24.2-30.899 1.2-27.504-24.9-57.504-71.2-57.205zM97.4 336.3c-14.7 16.1-35.4 22.2-44.2 17-9.5-5.5-5.801-29.2 12.3-46.3 11-10.4 25.3-20 34.7-25.9 2.1-1.3 5.3-3.199 9.1-5.5.6-.399 1-.6 1-.6.7-.4 1.5-.9 2.3-1.4 6.7 24.4.3 45.8-15.2 62.7zm107.5-73.1c-5.1 12.5-15.9 44.6-22.4 42.8-5.601-1.5-9-25.8-1.101-49.8 4-12.101 12.5-26.5 17.5-32.101 8.101-9 16.9-12 19.101-8.3 2.6 4.801-9.9 39.601-13.1 47.401zm88.7 42.4c-2.2 1.101-4.2 1.9-5.1 1.301-.7-.4.899-1.9.899-1.9s11.1-11.9 15.5-17.4c2.5-3.199 5.5-6.899 8.7-11.1v1.2C313.6 292.1 299.8 301.7 293.6 305.6zm68.399-15.6c-1.6-1.2-1.399-4.9 4-16.5 2.101-4.6 6.9-12.3 15.2-19.6 1 3 1.601 5.899 1.5 8.6-.099 18-12.899 24.7-20.7 27.5z" /></symbol><symbol viewBox="0 0 1200 1200" id="webpack"><path fill="#fff" d="M600 0l530.3 300v600L600 1200 69.7 900V300z" /><path fill="#8ed6fb" d="M1035.6 879.3l-418.1 236.5V931.6L878 788.3l157.6 91zm28.6-25.9V358.8l-153 88.3V765l153 88.4zm-901.5 25.9l418.1 236.5V931.6L320.3 788.3l-157.6 91zm-28.6-25.9V358.8l153 88.3V765l-153 88.4zM152 326.8L580.8 84.2v178.1L306.1 413.4l-2.1 1.2-152-87.8zm894.3 0L617.5 84.2v178.1l274.7 151.1 2.1 1.2 152-87.8z" /><path fill="#1c78c0" d="m580.8 889.7l-257-141.3v-280l257 148.4v272.9m36.7 0l257-141.3v-280l-257 148.4v272.9m-276.3-453.7l258-141.9 258 141.9-258 149-258-149" /></symbol><symbol viewBox="0 0 540 122.523" id="wordpress">
<g id="wordpress_Layer_1">
</g>
<g id="wordpress_Layer_2">
	<g>
		<path fill="#00749A" d="M313.19,48.227h-21.257v2.255c6.649,0,7.718,1.425,7.718,9.857V75.54c0,8.431-1.068,9.975-7.718,9.975
			c-5.105-0.712-8.55-3.444-13.3-8.669l-5.462-5.937c7.362-1.308,11.28-5.938,11.28-11.164c0-6.53-5.58-11.518-16.031-11.518h-20.9
			v2.255c6.649,0,7.718,1.425,7.718,9.857V75.54c0,8.431-1.069,9.975-7.718,9.975v2.256h23.631v-2.256
			c-6.649,0-7.718-1.544-7.718-9.975v-4.274h2.018l13.182,16.505h34.557c16.981,0,24.344-9.024,24.344-19.832
			C337.534,57.133,330.172,48.227,313.19,48.227z M263.434,67.582V51.79h4.868c5.343,0,7.719,3.681,7.719,7.956
			c0,4.157-2.376,7.837-7.719,7.837H263.434z M313.547,84.09h-0.832c-4.274,0-4.868-1.068-4.868-6.531V51.79c0,0,5.225,0,5.7,0
			c12.35,0,14.605,9.024,14.605,16.031C328.152,75.064,325.896,84.09,313.547,84.09z" />
		<path fill="#00749A" d="M181.378,71.978l8.194-24.227c2.376-7.006,1.307-9.024-6.293-9.024v-2.376h22.325v2.376
			c-7.481,0-9.262,1.781-12.231,10.45L179.834,89.79h-1.543l-12.114-37.17l-12.349,37.17h-1.544l-13.181-40.613
			c-2.85-8.669-4.75-10.45-11.638-10.45v-2.376h26.363v2.376c-7.007,0-8.908,1.662-6.413,9.024l7.956,24.227l11.994-35.627h2.257
			L181.378,71.978z" />
		<path fill="#00749A" d="M221.752,89.314c-13.062,0-23.75-9.618-23.75-21.376c0-11.637,10.689-21.257,23.75-21.257
			c13.063,0,23.75,9.62,23.75,21.257C245.502,79.696,234.815,89.314,221.752,89.314z M221.752,50.365
			c-10.924,0-14.725,9.855-14.725,17.574c0,7.839,3.801,17.576,14.725,17.576c11.045,0,14.845-9.737,14.845-17.576
			C236.597,60.22,232.797,50.365,221.752,50.365z" />
		<path fill="#464342" d="M366.864,85.396v2.375H339.67v-2.375c7.957,0,9.382-2.018,9.382-13.895V52.502
			c0-11.877-1.425-13.776-9.382-13.776v-2.376h24.581c12.231,0,19.002,6.294,19.002,14.727c0,8.194-6.771,14.606-19.002,14.606
			h-6.769v5.817C357.482,83.378,358.907,85.396,366.864,85.396z M364.251,40.625h-6.769v20.664h6.769
			c6.651,0,9.738-4.631,9.738-10.212C373.989,45.377,370.902,40.625,364.251,40.625z" />
		<path fill="#464342" d="M464.833,76.609l-0.594,2.137c-1.068,3.919-2.376,5.344-10.807,5.344h-1.663
			c-6.174,0-7.243-1.425-7.243-9.856v-5.462c9.263,0,9.976,0.83,9.976,7.006h2.256V58.083h-2.256c0,6.175-0.713,7.006-9.976,7.006
			V51.79h6.53c8.433,0,9.738,1.425,10.807,5.344l0.595,2.255h1.899l-0.83-11.162h-34.914v2.255c6.649,0,7.719,1.425,7.719,9.857
			V75.54c0,7.713-0.908,9.656-6.151,9.933c-4.983-0.761-8.404-3.479-13.085-8.627l-5.463-5.937
			c7.363-1.308,11.282-5.938,11.282-11.164c0-6.53-5.581-11.518-16.031-11.518h-20.9v2.255c6.649,0,7.718,1.425,7.718,9.857V75.54
			c0,8.431-1.068,9.975-7.718,9.975v2.256h23.632v-2.256c-6.649,0-7.719-1.544-7.719-9.975v-4.274h2.019l13.181,16.505h48.806
			l0.713-11.161H464.833z M401.896,67.582V51.79h4.868c5.344,0,7.72,3.681,7.72,7.956c0,4.157-2.376,7.837-7.72,7.837H401.896z" />
		<path fill="#464342" d="M488.939,89.314c-4.75,0-8.907-2.493-10.688-4.038c-0.594,0.595-1.662,2.376-1.899,4.038h-2.257V72.928
			h2.375c0.951,7.837,6.412,12.468,13.419,12.468c3.8,0,6.888-2.137,6.888-5.699c0-3.087-2.731-5.463-7.6-7.719l-6.769-3.206
			c-4.751-2.258-8.313-6.177-8.313-11.401c0-5.7,5.344-10.568,12.707-10.568c3.919,0,7.243,1.425,9.263,3.087
			c0.593-0.475,1.187-1.782,1.544-3.208h2.256v14.014h-2.494c-0.832-5.582-3.919-10.213-10.212-10.213
			c-3.325,0-6.414,1.9-6.414,4.87c0,3.087,2.494,4.749,8.195,7.362l6.53,3.206c5.701,2.731,7.956,7.127,7.956,10.689
			C503.426,84.09,496.895,89.314,488.939,89.314z" />
		<path fill="#464342" d="M525.514,89.314c-4.751,0-8.908-2.493-10.688-4.038c-0.594,0.595-1.662,2.376-1.899,4.038h-2.257V72.928
			h2.375c0.95,7.837,6.412,12.468,13.419,12.468c3.8,0,6.888-2.137,6.888-5.699c0-3.087-2.731-5.463-7.601-7.719l-6.769-3.206
			c-4.75-2.258-8.313-6.177-8.313-11.401c0-5.7,5.344-10.568,12.707-10.568c3.919,0,7.243,1.425,9.263,3.087
			c0.593-0.475,1.187-1.782,1.542-3.208h2.257v14.014h-2.493c-0.832-5.582-3.919-10.213-10.212-10.213
			c-3.325,0-6.414,1.9-6.414,4.87c0,3.087,2.494,4.749,8.195,7.362l6.53,3.206c5.701,2.731,7.956,7.127,7.956,10.689
			C540,84.09,533.469,89.314,525.514,89.314z" />
		<g>
			<path fill="#464342" d="M8.708,61.26c0,20.802,12.089,38.779,29.619,47.298L13.258,39.872
				C10.342,46.408,8.708,53.641,8.708,61.26z" />
			<path fill="#464342" d="M96.74,58.608c0-6.495-2.333-10.993-4.334-14.494c-2.664-4.329-5.161-7.995-5.161-12.324
				c0-4.831,3.664-9.328,8.825-9.328c0.233,0,0.454,0.029,0.681,0.042c-9.35-8.566-21.807-13.796-35.489-13.796
				c-18.36,0-34.513,9.42-43.91,23.688c1.233,0.037,2.395,0.063,3.382,0.063c5.497,0,14.006-0.667,14.006-0.667
				c2.833-0.167,3.167,3.994,0.337,4.329c0,0-2.847,0.335-6.015,0.501L48.2,93.547l11.501-34.493l-8.188-22.434
				c-2.83-0.166-5.511-0.501-5.511-0.501c-2.832-0.166-2.5-4.496,0.332-4.329c0,0,8.679,0.667,13.843,0.667
				c5.496,0,14.006-0.667,14.006-0.667c2.835-0.167,3.168,3.994,0.337,4.329c0,0-2.853,0.335-6.015,0.501l18.992,56.494
				l5.242-17.517C95.011,68.328,96.74,63.107,96.74,58.608z" />
			<path fill="#464342" d="M62.184,65.857l-15.768,45.819c4.708,1.384,9.687,2.141,14.846,2.141c6.12,0,11.989-1.058,17.452-2.979
				c-0.141-0.225-0.269-0.464-0.374-0.724L62.184,65.857z" />
			<path fill="#464342" d="M107.376,36.046c0.226,1.674,0.354,3.471,0.354,5.404c0,5.333-0.996,11.328-3.996,18.824l-16.053,46.413
				c15.624-9.111,26.133-26.038,26.133-45.426C113.815,52.124,111.481,43.532,107.376,36.046z" />
			<path fill="#464342" d="M61.262,0C27.483,0,0,27.481,0,61.26c0,33.783,27.483,61.263,61.262,61.263
				c33.778,0,61.265-27.48,61.265-61.263C122.526,27.481,95.04,0,61.262,0z M61.262,119.715c-32.23,0-58.453-26.223-58.453-58.455
				c0-32.23,26.222-58.451,58.453-58.451c32.229,0,58.45,26.221,58.45,58.451C119.712,93.492,93.491,119.715,61.262,119.715z" />
		</g>
	</g>
</g>
</symbol></defs><use id="1c_bitrix-usage" xlink:href="#1c_bitrix" class="sprite-symbol-usage" /><use id="bootstrap5-usage" xlink:href="#bootstrap5" class="sprite-symbol-usage" /><use id="css-usage" xlink:href="#css" class="sprite-symbol-usage" /><use id="github-usage" xlink:href="#github" class="sprite-symbol-usage" /><use id="html-usage" xlink:href="#html" class="sprite-symbol-usage" /><use id="javascript-usage" xlink:href="#javascript" class="sprite-symbol-usage" /><use id="joomla-usage" xlink:href="#joomla" class="sprite-symbol-usage" /><use id="opencart-usage" xlink:href="#opencart" class="sprite-symbol-usage" /><use id="phpstorm-usage" xlink:href="#phpstorm" class="sprite-symbol-usage" /><use id="sass-usage" xlink:href="#sass" class="sprite-symbol-usage" /><use id="webpack-usage" xlink:href="#webpack" class="sprite-symbol-usage" /><use id="wordpress-usage" xlink:href="#wordpress" class="sprite-symbol-usage" /></svg>