<svg xmlns="http://www.w3.org/2000/svg" xmlns:xlink="http://www.w3.org/1999/xlink" xmlns:serif="http://www.serif.com/"><defs><style>
    .sprite-symbol-usage {display: none;}
    .sprite-symbol-usage:target {display: inline;}
  </style><symbol viewBox="0 0 344 67" id="1c_bitrix">
  <g fill="none" fill-rule="evenodd">
    <path fill="#231F20" d="M134.9501,31.543 C132.2141,31.543 129.9931,33.762 129.9931,36.496 C129.9931,39.236 132.2141,41.453 134.9501,41.453 C137.6881,41.453 139.9061,39.236 139.9061,36.496 C139.9061,33.762 137.6881,31.543 134.9501,31.543 Z M336.6371,27.906 C339.8871,27.906 342.2641,29.725 343.8221,31.543 L343.8221,22.76 C341.2691,21.029 338.1931,20.336 335.5181,20.336 C327.3021,20.336 320.1631,26.219 320.1631,36.34 C320.1631,46.031 326.6511,52.348 335.6461,52.348 C338.2411,52.348 341.0951,51.955 343.8221,50.098 L343.8221,41.484 C342.2641,43.088 339.8021,44.777 336.6371,44.777 C331.7961,44.777 328.8961,41.188 328.8961,36.6 C328.8961,31.625 331.9681,27.906 336.6371,27.906 Z M321.0921,21.203 L311.1431,21.203 L302.0141,33.918 L302.0141,21.203 L293.5381,21.203 L293.5411,51.482 L302.0141,51.482 L302.0141,38.459 L310.7921,51.482 L321.3961,51.482 L309.5851,35.865 L321.0921,21.203 Z M268.5041,39.371 L268.5041,21.203 L260.3291,21.203 L260.3291,51.482 L268.6341,51.482 L280.3571,33.313 L280.3571,51.482 L288.5321,51.482 L288.5321,21.203 L280.2251,21.203 L268.5041,39.371 Z M243.9381,34.826 L241.5201,34.826 L241.5201,27.865 L243.9381,27.865 C247.5721,27.865 248.0891,29.809 248.0891,31.324 C248.0891,32.621 247.7011,34.826 243.9381,34.826 Z M245.7961,21.203 L233.0381,21.203 L233.0381,51.482 L241.5201,51.482 L241.5201,41.484 L245.7961,41.484 C254.3631,41.484 256.8291,35.522 256.8291,31.324 C256.8291,27.17 254.4061,21.203 245.7961,21.203 Z M207.7801,28.467 L214.4371,28.467 L214.4371,51.482 L222.9181,51.482 L222.9181,28.467 L229.5771,28.467 L229.5771,21.203 L207.7801,21.203 L207.7801,28.467 Z M184.2891,39.371 L184.2891,21.203 L176.1161,21.203 L176.1161,51.482 L184.4231,51.482 L196.1401,33.313 L196.1401,51.482 L204.3171,51.482 L204.3171,21.203 L196.0141,21.203 L184.2891,39.371 Z M159.0301,45.422 L155.3981,45.422 L155.3981,39.066 L159.0301,39.066 C161.7131,39.066 163.2711,39.846 163.2711,42.227 C163.2711,44.647 161.6711,45.422 159.0301,45.422 Z M159.8541,33.01 L155.3981,33.01 L155.3981,28.467 L169.2821,28.467 L169.2821,21.203 L146.9211,21.203 L146.9201,51.4820255 L159.8541,51.482 C162.0571,51.482 171.7481,51.566 171.7481,42.096 C171.7481,32.967 162.1461,33.01 159.8541,33.01 Z M99.4711,36.34 C99.4711,46.031 105.9591,52.348 114.9551,52.348 C117.5531,52.348 120.4071,51.955 123.1331,50.098 L123.1331,41.484 C121.5711,43.088 119.1061,44.777 115.9501,44.777 C111.1041,44.777 108.2081,41.188 108.2081,36.6 C108.2081,31.625 111.2781,27.906 115.9501,27.906 C119.1931,27.906 121.5711,29.725 123.1331,31.543 L123.1331,22.76 C120.5751,21.029 117.5071,20.336 114.8251,20.336 C106.6061,20.336 99.4711,26.219 99.4711,36.34 Z M81.7211,28.166 L86.3521,28.166 L86.3521,51.482 L94.1821,51.482 L94.1821,21.203 L81.7211,21.203 L81.7211,28.166 Z" />
    <path fill="#D91935" d="M33.289,0.0001 C30.809,0.0001 28.397,0.2791 26.073,0.7951 L26.073,33.3141 C26.073,37.2991 29.322,40.5491 33.308,40.5491 C37.292,40.5491 40.54,37.2991 40.54,33.3161 C40.54,29.4881 37.549,26.3461 33.789,26.0961 L33.789,20.3051 C40.737,20.5571 46.328,26.3051 46.328,33.3161 C46.328,40.4861 40.479,46.3381 33.308,46.3381 C26.134,46.3381 20.286,40.4861 20.286,33.3141 L20.286,2.6351 C19.464,2.9841 18.661,3.3711 17.874,3.7871 L17.874,33.3141 C17.875,41.8131 24.809,48.7441 33.308,48.7441 C41.808,48.7441 48.739,41.8131 48.739,33.3161 C48.739,24.9771 42.069,18.1481 33.789,17.8911 L33.789,12.1021 C45.255,12.3611 54.524,21.7911 54.524,33.3161 C54.524,45.0041 44.993,54.5331 33.308,54.5331 C21.62,54.5331 12.086,45.0041 12.086,33.3141 L12.086,7.6271 C4.706,13.7301 0,22.9591 0,33.2891 C0,51.6741 14.904,66.5821 33.29,66.5821 C51.679,66.5821 66.579,51.6741 66.579,33.2891 C66.579,14.9041 51.679,0.0001 33.289,0.0001" />
  </g>
</symbol><symbol viewBox="0 0 512 407.864" id="bootstrap5"><path d="m106.344 0c-29.214 0-50.831 25.57-49.863 53.3.929 26.641-.278 61.145-8.964 89.283-8.717 28.217-23.449 46.098-47.517 48.393v25.912c24.068 2.3 38.8 20.172 47.516 48.393 8.687 28.138 9.893 62.642 8.964 89.283-.968 27.726 20.649 53.3 49.868 53.3h299.347c29.214 0 50.827-25.57 49.859-53.3-.929-26.641.278-61.145 8.964-89.283 8.717-28.221 23.413-46.1 47.482-48.393v-25.912c-24.068-2.3-38.764-20.172-47.482-48.393-8.687-28.134-9.893-62.642-8.964-89.283.968-27.726-20.645-53.3-49.859-53.3h-299.355zm240.775 251.067c0 38.183-28.481 61.34-75.746 61.34h-80.458a8.678 8.678 0 0 1 -8.678-8.678v-199.593a8.678 8.678 0 0 1 8.678-8.678h80c39.411 0 65.276 21.348 65.276 54.124 0 23.005-17.4 43.6-39.567 47.208v1.2c30.176 3.31 50.495 24.21 50.495 53.077zm-84.519-128.1h-45.876v64.8h38.639c29.87 0 46.34-12.028 46.34-33.527-.003-20.148-14.163-31.273-39.103-31.273zm-45.876 90.511v71.411h47.564c31.1 0 47.573-12.479 47.573-35.931s-16.935-35.484-49.573-35.484h-45.564z" fill="#7952b3" fill-rule="evenodd" /></symbol><symbol fill="none" viewBox="0 0 124 141.53" id="css"><path d="M10.383 126.892L0 0l124 .255-10.979 126.637-50.553 14.638z" fill="#1b73ba" /><path d="M62.468 129.275V12.085l51.064.17-9.106 104.85z" fill="#1c88c7" /><path d="M100.851 27.064H22.298l2.128 15.318h37.276l-36.68 15.745 2.127 14.808h54.043l-1.958 20.68-18.298 3.575-16.595-4.255-1.277-11.745H27.83l2.042 24.426 32.681 9.106 31.32-9.957 4-47.745H64.765l36.085-14.978z" fill="#fff" /></symbol><symbol viewBox="0 0 256 249" preserveAspectRatio="xMinYMin meet" id="github"><g fill="#161614"><path d="M127.505 0C57.095 0 0 57.085 0 127.505c0 56.336 36.534 104.13 87.196 120.99 6.372 1.18 8.712-2.766 8.712-6.134 0-3.04-.119-13.085-.173-23.739-35.473 7.713-42.958-15.044-42.958-15.044-5.8-14.738-14.157-18.656-14.157-18.656-11.568-7.914.872-7.752.872-7.752 12.804.9 19.546 13.14 19.546 13.14 11.372 19.493 29.828 13.857 37.104 10.6 1.144-8.242 4.449-13.866 8.095-17.05-28.32-3.225-58.092-14.158-58.092-63.014 0-13.92 4.981-25.295 13.138-34.224-1.324-3.212-5.688-16.18 1.235-33.743 0 0 10.707-3.427 35.073 13.07 10.17-2.826 21.078-4.242 31.914-4.29 10.836.048 21.752 1.464 31.942 4.29 24.337-16.497 35.029-13.07 35.029-13.07 6.94 17.563 2.574 30.531 1.25 33.743 8.175 8.929 13.122 20.303 13.122 34.224 0 48.972-29.828 59.756-58.22 62.912 4.573 3.957 8.648 11.717 8.648 23.612 0 17.06-.148 30.791-.148 34.991 0 3.393 2.295 7.369 8.759 6.117 50.634-16.879 87.122-64.656 87.122-120.973C255.009 57.085 197.922 0 127.505 0" /><path d="M47.755 181.634c-.28.633-1.278.823-2.185.389-.925-.416-1.445-1.28-1.145-1.916.275-.652 1.273-.834 2.196-.396.927.415 1.455 1.287 1.134 1.923M54.027 187.23c-.608.564-1.797.302-2.604-.589-.834-.889-.99-2.077-.373-2.65.627-.563 1.78-.3 2.616.59.834.899.996 2.08.36 2.65M58.33 194.39c-.782.543-2.06.034-2.849-1.1-.781-1.133-.781-2.493.017-3.038.792-.545 2.05-.055 2.85 1.07.78 1.153.78 2.513-.019 3.069M65.606 202.683c-.699.77-2.187.564-3.277-.488-1.114-1.028-1.425-2.487-.724-3.258.707-.772 2.204-.555 3.302.488 1.107 1.026 1.445 2.496.7 3.258M75.01 205.483c-.307.998-1.741 1.452-3.185 1.028-1.442-.437-2.386-1.607-2.095-2.616.3-1.005 1.74-1.478 3.195-1.024 1.44.435 2.386 1.596 2.086 2.612M85.714 206.67c.036 1.052-1.189 1.924-2.705 1.943-1.525.033-2.758-.818-2.774-1.852 0-1.062 1.197-1.926 2.721-1.951 1.516-.03 2.758.815 2.758 1.86M96.228 206.267c.182 1.026-.872 2.08-2.377 2.36-1.48.27-2.85-.363-3.039-1.38-.184-1.052.89-2.105 2.367-2.378 1.508-.262 2.857.355 3.049 1.398" /></g></symbol><symbol fill="none" viewBox="0 0 124 141.53199999999998" id="html"><path d="M10.383 126.894L0 0l124 .255-10.979 126.639-50.553 14.638z" fill="#e34f26" /><path d="M62.468 129.277V12.085l51.064.17-9.106 104.851z" fill="#ef652a" /><path d="M99.49 41.362l1.446-15.49H22.383l4.34 47.49h54.213L78.81 93.617l-17.362 4.68-17.617-5.106-.936-12.085H27.319l2.128 24.681 32 8.936 32.255-8.936 4.34-48.17H41.107L39.49 41.362z" fill="#fff" /></symbol><symbol viewBox="0 0 1052 1052" id="javascript"><path fill="#f0db4f" d="M0 0h1052v1052H0z" /><path d="M965.9 801.1c-7.7-48-39-88.3-131.7-125.9-32.2-14.8-68.1-25.399-78.8-49.8-3.8-14.2-4.3-22.2-1.9-30.8 6.9-27.9 40.2-36.6 66.6-28.6 17 5.7 33.1 18.801 42.8 39.7 45.4-29.399 45.3-29.2 77-49.399-11.6-18-17.8-26.301-25.4-34-27.3-30.5-64.5-46.2-124-45-10.3 1.3-20.699 2.699-31 4-29.699 7.5-58 23.1-74.6 44-49.8 56.5-35.6 155.399 25 196.1 59.7 44.8 147.4 55 158.6 96.9 10.9 51.3-37.699 67.899-86 62-35.6-7.4-55.399-25.5-76.8-58.4-39.399 22.8-39.399 22.8-79.899 46.1 9.6 21 19.699 30.5 35.8 48.7 76.2 77.3 266.899 73.5 301.1-43.5 1.399-4.001 10.6-30.801 3.199-72.101zm-394-317.6h-98.4c0 85-.399 169.4-.399 254.4 0 54.1 2.8 103.7-6 118.9-14.4 29.899-51.7 26.2-68.7 20.399-17.3-8.5-26.1-20.6-36.3-37.699-2.8-4.9-4.9-8.7-5.601-9-26.699 16.3-53.3 32.699-80 49 13.301 27.3 32.9 51 58 66.399 37.5 22.5 87.9 29.4 140.601 17.3 34.3-10 63.899-30.699 79.399-62.199 22.4-41.3 17.6-91.3 17.4-146.6.5-90.2 0-180.4 0-270.9z" fill="#323330" /></symbol><symbol viewBox="0 0 256 258" preserveAspectRatio="xMinYMin meet" id="joomla"><path d="M255.667 35.561c0-18.607-15.084-33.691-33.691-33.691-16.99 0-31.035 12.578-33.349 28.929l-.341-.18c-27.553-12.427-50.762 9.584-50.762 9.584l-61.391 61.692 24.257 23.36 49.413-48.546c23.074-23.075 35.638-7.457 35.638-7.457 17.37 14.674.598 32.044.598 32.044l24.857 23.959c20.298-21.923 21.475-41.056 15.305-56.276 16.612-2.08 29.466-16.243 29.466-33.418" fill="#F9AE41" /><path d="M226.514 190.507c.115-.215.18-.34.18-.34 12.428-27.554-9.584-50.763-9.584-50.763l-61.693-61.393-23.359 24.259 48.546 49.412c23.074 23.075 7.456 35.64 7.456 35.64-14.673 17.37-32.043.598-32.043.598l-23.959 24.856c21.922 20.298 41.056 21.475 56.275 15.305 2.08 16.612 16.244 29.467 33.419 29.467 18.607 0 33.69-15.084 33.69-33.691 0-16.99-12.577-31.035-28.928-33.35" fill="#EE4035" /><path d="M155.942 133.04l-49.413 48.545c-23.075 23.076-35.639 7.459-35.639 7.459C53.52 174.369 70.291 157 70.291 157L45.436 133.04c-20.298 21.922-21.476 41.055-15.307 56.275C13.517 191.396.663 205.558.663 222.734c0 18.607 15.084 33.69 33.692 33.69 16.99.001 31.035-12.576 33.349-28.927.216.115.341.179.341.179 27.554 12.43 50.762-9.584 50.762-9.584l61.392-61.693-24.257-23.359" fill="#4F91CD" /><path d="M75.727 106.613c-23.075-23.075-7.459-35.64-7.459-35.64 14.676-17.37 32.045-.598 32.045-.598l23.959-24.855C102.35 25.222 83.217 24.045 67.997 30.214 65.917 13.601 51.755.747 34.577.747 15.973.747.89 15.831.888 34.438c0 16.991 12.577 31.036 28.929 33.35-.115.216-.179.342-.179.342-12.43 27.552 9.583 50.76 9.583 50.76l61.694 61.393 23.359-24.257-48.546-49.413" fill="#7AC043" /></symbol><symbol viewBox="0 0 400 78" id="opencart">
    <g transform="matrix(0.16,0,0,0.159836,0,0)">
        <path d="M248.385,255.483C248.385,292.805 237.288,324.242 215.015,349.691C191.772,376.355 161.57,389.741 124.599,389.741C87.53,389.741 57.426,376.355 34.182,349.691C11.9,324.242 0.72,292.805 0.72,255.483C0.72,218.058 11.9,186.631 34.182,161.274C57.684,134.859 87.887,121.658 124.599,121.658C161.57,121.658 191.772,134.859 215.015,161.274C237.288,186.631 248.385,218.058 248.385,255.483ZM174.775,255.483C174.775,238.578 170.729,224.309 162.629,212.773C153.566,199.66 140.883,193.146 124.599,193.146C108.309,193.146 95.631,199.66 86.559,212.773C78.375,224.309 74.325,238.578 74.325,255.483C74.325,272.294 78.375,286.734 86.559,298.617C95.631,311.73 108.309,318.254 124.599,318.254C140.883,318.254 153.566,311.73 162.629,298.617C170.729,286.734 174.775,272.294 174.775,255.483ZM514.535,255.483C514.535,290.345 504.497,320.806 484.333,346.866C462.763,375.389 434.942,389.741 401.134,389.741C377.271,389.741 357.028,382.787 340.475,369.055C340.475,372.217 340.827,379.879 341.534,392.128C342.237,404.44 342.584,414.478 342.584,422.403C342.584,466.172 329.554,488 303.5,488C292.842,488 284.131,484.213 277.172,476.727C270.306,469.163 266.87,460.077 266.87,449.35L266.87,164.71C266.87,154.32 270.394,145.336 277.436,137.772C284.477,130.286 293.198,126.509 303.587,126.509C319.252,126.509 330.701,134.327 337.923,149.923C353.329,131.082 374.372,121.658 401.046,121.658C434.942,121.658 462.675,135.737 484.333,164.007C504.409,190.159 514.535,220.62 514.535,255.483ZM440.925,255.483C440.925,238.578 436.797,224.309 428.696,212.773C419.619,199.66 406.946,193.146 390.656,193.146C374.372,193.146 361.694,199.66 352.622,212.773C344.521,224.309 340.475,238.578 340.475,255.483C340.475,272.294 344.521,286.734 352.622,298.617C361.694,311.73 374.372,318.254 390.656,318.254C406.946,318.254 419.619,311.73 428.696,298.617C436.797,286.734 440.925,272.294 440.925,255.483ZM782.354,247.567C782.354,259.88 779.446,268.332 773.634,273.095C767.827,277.755 758.76,280.132 746.521,280.132L613.663,280.132C613.663,294.22 620.27,305.044 633.475,312.608C644.128,318.518 657.158,321.519 672.564,321.519C684.545,321.519 698.892,317.542 715.708,309.719C732.525,301.789 743.349,297.909 748.024,297.909C756.559,297.909 763.776,300.994 769.764,307.333C775.659,313.589 778.66,321.158 778.66,329.878C778.66,350.028 763.606,365.717 733.486,376.98C710.511,385.427 687.18,389.741 663.326,389.741C624.94,389.741 593.947,376.98 570.265,351.541C546.577,326.091 534.699,294.132 534.699,255.483C534.699,218.673 547.021,187.246 571.67,161.02C596.231,134.771 626.79,121.658 663.234,121.658C697.13,121.658 725.478,134.073 748.199,158.898C770.906,183.732 782.354,213.31 782.354,247.567ZM708.754,229.067C708.398,217.794 703.206,207.585 693.168,198.333C683.129,189.095 672.481,184.523 661.208,184.523C649.589,184.523 638.756,189.095 628.722,198.333C618.689,207.585 613.663,217.794 613.663,229.067L708.754,229.067ZM1029.66,346.241C1029.66,356.992 1026.23,366.054 1019.37,373.627C1012.41,381.118 1003.69,384.905 993.039,384.905C967.331,384.905 954.472,364.477 954.472,323.715C954.472,315.878 955.004,303.556 956.058,286.563C957.205,269.654 957.737,257.244 957.737,249.407C957.737,206.17 943.736,184.523 915.827,184.523C887.914,184.523 874.006,206.17 874.006,249.407C874.006,257.244 874.445,269.654 875.236,286.563C876.119,303.556 876.558,315.878 876.558,323.715C876.558,364.477 863.88,384.905 838.528,384.905C827.87,384.905 819.159,381.118 812.288,373.627C805.334,366.054 801.899,356.992 801.899,346.241L801.899,164.632C801.899,153.959 805.334,144.907 812.288,137.596C819.159,130.198 827.963,126.509 838.616,126.509C856.223,126.509 868.457,134.327 875.323,149.923C887.211,131.082 908.249,121.658 938.363,121.658C966.272,121.658 988.461,129.047 1004.75,143.75C1021.39,159.522 1029.66,181.17 1029.66,208.732L1029.66,346.241ZM1260.59,338.418C1260.59,355.054 1249.78,368.255 1228.11,377.951C1210.95,385.776 1192.3,389.798 1173.44,389.741C1136.36,389.741 1106.26,376.355 1083.02,349.691C1060.74,324.242 1049.56,292.805 1049.56,255.483C1049.56,218.058 1060.92,186.46 1083.72,160.572C1106.52,134.605 1136.36,121.658 1173.44,121.658C1194.83,121.658 1213.23,124.826 1228.56,131.082C1249.94,139.534 1260.59,152.734 1260.59,170.698C1260.59,179.76 1257.78,187.773 1252.14,194.732C1246.51,201.598 1239.28,205.121 1230.49,205.121C1224.49,205.121 1215.86,203.096 1204.6,199.143C1193.33,195.083 1184.36,193.146 1177.76,193.146C1160.23,193.146 1146.58,199.397 1136.81,211.894C1127.74,223.167 1123.16,237.607 1123.16,255.483C1123.16,272.294 1127.21,286.563 1135.41,298.095C1144.46,311.568 1157.24,318.254 1173.52,318.254C1180.75,318.254 1190.6,316.141 1203.19,311.817C1215.79,307.606 1224.86,305.405 1230.49,305.405C1238.68,305.405 1245.71,308.919 1251.71,315.79C1257.61,322.744 1260.59,330.22 1260.59,338.418ZM1528.15,346.241C1528.15,356.992 1524.72,366.054 1517.85,373.627C1510.9,381.118 1502.1,384.905 1491.43,384.905C1475.41,384.905 1463.97,377.063 1457.1,361.481C1441.7,380.328 1420.65,389.741 1393.98,389.741C1359.83,389.741 1331.83,375.389 1310.16,346.866C1290.44,320.806 1280.51,290.345 1280.51,255.483C1280.51,220.62 1290.44,190.159 1310.16,164.007C1332.18,135.737 1360.08,121.658 1393.98,121.658C1420.65,121.658 1441.7,131.082 1457.1,149.923C1463.97,134.327 1475.41,126.509 1491.43,126.509C1501.83,126.509 1510.55,130.286 1517.6,137.772C1524.63,145.336 1528.15,154.232 1528.15,164.632L1528.15,346.241ZM1454.55,255.483C1454.55,238.578 1450.51,224.309 1442.4,212.773C1432.98,199.66 1420.3,193.146 1404.37,193.146C1388.08,193.146 1375.41,199.66 1366.33,212.773C1358.15,224.309 1354.11,238.578 1354.11,255.483C1354.11,272.294 1358.05,286.734 1365.88,298.617C1375.23,311.73 1388.08,318.254 1404.37,318.254C1420.65,318.254 1433.33,311.73 1442.4,298.617C1450.51,286.734 1454.55,272.294 1454.55,255.483ZM1715.95,159.776C1715.95,175.534 1708.29,186.362 1692.97,192.257C1678.8,197.02 1664.7,201.871 1650.62,206.873C1635.2,215.686 1627.55,232.059 1627.55,255.834L1627.55,346.241C1627.55,356.992 1624.02,366.054 1617.17,373.627C1610.2,381.118 1601.4,384.905 1590.75,384.905C1580.02,384.905 1571.2,381.118 1564.35,373.627C1557.38,366.054 1553.95,356.992 1553.95,346.241L1553.95,164.632C1553.95,153.959 1557.38,144.907 1564.25,137.596C1571.2,130.198 1580.02,126.509 1590.67,126.509C1608.27,126.509 1620.5,134.327 1627.38,149.923C1643.14,131.082 1660.05,121.658 1678.27,121.658C1688.65,121.658 1697.55,125.436 1704.94,132.921C1712.24,140.495 1715.95,149.474 1715.95,159.776ZM1907.97,163.124C1907.97,179.496 1901.54,189.798 1888.79,194.209C1882.52,196.405 1869.39,197.547 1849.41,197.547L1849.41,346.241C1849.41,356.992 1845.89,366.054 1839.04,373.627C1832.07,381.118 1823.27,384.905 1812.62,384.905C1802.24,384.905 1793.42,381.118 1786.37,373.627C1779.34,366.054 1775.82,356.992 1775.82,346.241L1775.82,197.547C1760.67,197.547 1749.67,195.61 1742.72,191.833C1733.22,186.548 1728.52,176.949 1728.52,163.124C1728.52,149.308 1733.37,139.885 1743.14,134.859C1749.75,131.16 1760.67,129.232 1775.82,129.232L1775.82,97.712C1775.82,60.649 1788.04,42.163 1812.62,42.163C1837.09,42.163 1849.41,60.649 1849.41,97.712L1849.41,129.232C1869.39,129.232 1882.52,130.374 1888.79,132.57C1901.54,136.972 1907.97,147.195 1907.97,163.124ZM2499.28,118.418C2499.08,95.819 2457.32,85.561 2349.22,85.561C2095.58,85.561 2031.23,74.727 1962.37,2.264C1991.34,45.774 2007.19,127.383 2275.28,123.322C2554.99,119.013 2384.35,195.444 2334.7,281.796C2424.24,201.881 2499.01,149.206 2499.28,118.745L2499.28,118.418ZM2142.86,350.477C2142.85,371.483 2125.57,388.765 2104.56,388.77C2083.34,388.77 2066.18,371.612 2066.18,350.477C2066.18,350.467 2066.18,350.457 2066.18,350.447C2066.18,329.406 2083.49,312.091 2104.54,312.091C2104.55,312.091 2104.55,312.091 2104.56,312.091C2125.71,312.091 2142.86,329.254 2142.86,350.477ZM2317.53,350.477C2317.52,371.483 2300.24,388.765 2279.23,388.77C2258.03,388.77 2240.86,371.612 2240.86,350.477C2240.86,350.467 2240.86,350.457 2240.86,350.447C2240.86,329.406 2258.17,312.091 2279.21,312.091C2279.22,312.091 2279.22,312.091 2279.23,312.091C2300.38,312.091 2317.53,329.254 2317.53,350.477Z" style="fill:url(#opencart__Linear1);fill-rule:nonzero;" />
    </g>
    <defs>
        
    </defs>
</symbol><linearGradient id="opencart__Linear1" x1="0" y1="0" x2="1" y2="0" gradientUnits="userSpaceOnUse" gradientTransform="matrix(2.35277e-14,-384.236,384.236,2.35277e-14,1250,386.501)"><stop offset="0" style="stop-color:rgb(4,182,240);stop-opacity:1" /><stop offset="1" style="stop-color:rgb(62,202,240);stop-opacity:1" /></linearGradient><symbol viewBox="0 0 70 70" id="phpstorm"><style>#phpstorm .st0{fill:url(#phpstorm_SVGID_1_)}#phpstorm .st1{fill:url(#phpstorm_SVGID_2_)}#phpstorm .st2{fill:url(#phpstorm_SVGID_3_)}#phpstorm .st3{fill:url(#phpstorm_SVGID_4_)}#phpstorm .st4{fill:#fff}</style><path class="st0" d="M39.6 15.2l-3.3-10L11.9 0 0 13.5l37.2 19z" /><path class="st1" d="M28 41.4l-.7-20.8L0 13.5l6.7 40.1 21.3-.2z" /><path class="st2" d="M22.1 41l1.3-16.5L43.2 4.2l17.7 3.2L70 30.1l-9.5 9.4L45 37l-9.6 10.1z" /><path class="st3" d="M43.2 4.2L14.8 29.4l5.5 32.4L43.9 70 70 54.4z" /><g><path d="M13.4 13.4h43.2v43.2H13.4z" /><path class="st4" d="M17.5 48.5h16.2v2.7H17.5zM17.3 19h7.3c4.3 0 6.9 2.5 6.9 6.2v.1c0 4.2-3.2 6.3-7.3 6.3h-3V37h-3.9V19zm7.1 9c2 0 3.1-1.2 3.1-2.7v-.1c0-1.8-1.2-2.7-3.2-2.7h-3V28h3.1zM32.5 34.4l2.3-2.8c1.6 1.3 3.3 2.2 5.4 2.2 1.6 0 2.6-.6 2.6-1.7V32c0-1-.6-1.5-3.6-2.3-3.6-.9-6-1.9-6-5.5v-.1c0-3.3 2.6-5.4 6.3-5.4 2.6 0 4.9.8 6.7 2.3l-2.1 3c-1.6-1.1-3.2-1.8-4.7-1.8s-2.3.7-2.3 1.6v.1c0 1.2.8 1.6 3.9 2.4 3.6 1 5.7 2.3 5.7 5.4v.1c0 3.6-2.7 5.6-6.6 5.6-2.7-.1-5.4-1.1-7.6-3" /></g></symbol><linearGradient id="phpstorm_SVGID_1_" gradientUnits="userSpaceOnUse" x1=".551" y1="25.16" x2="29.941" y2="63.98" gradientTransform="matrix(1 0 0 -1 0 72)"><stop offset=".016" stop-color="#765af8" /><stop offset=".382" stop-color="#b345f1" /><stop offset=".758" stop-color="#fa3293" /><stop offset=".941" stop-color="#ff318c" /></linearGradient><linearGradient id="phpstorm_SVGID_2_" gradientUnits="userSpaceOnUse" x1="2.709" y1="23.637" x2="32.052" y2="62.394" gradientTransform="matrix(1 0 0 -1 0 72)"><stop offset=".016" stop-color="#765af8" /><stop offset=".382" stop-color="#b345f1" /><stop offset=".758" stop-color="#fa3293" /><stop offset=".941" stop-color="#ff318c" /></linearGradient><linearGradient id="phpstorm_SVGID_3_" gradientUnits="userSpaceOnUse" x1="50.856" y1="25.595" x2="34.273" y2="64.952" gradientTransform="matrix(1 0 0 -1 0 72)"><stop offset=".183" stop-color="#765af8" /><stop offset=".238" stop-color="#8655f6" /><stop offset=".345" stop-color="#9f4cf3" /><stop offset=".443" stop-color="#ae47f2" /><stop offset=".522" stop-color="#b345f1" /></linearGradient><linearGradient id="phpstorm_SVGID_4_" gradientUnits="userSpaceOnUse" x1="63.251" y1="14.642" x2="24.683" y2="44.465" gradientTransform="matrix(1 0 0 -1 0 72)"><stop offset=".016" stop-color="#765af8" /><stop offset=".382" stop-color="#b345f1" /></linearGradient><symbol viewBox="0 0 512 384" id="sass"><path fill="#CF649A" d="M440.6 220.6c-17.9.101-33.4 4.4-46.4 10.801-4.8-9.5-9.6-17.801-10.399-24-.9-7.2-2-11.601-.9-20.2C384 178.6 389 166.4 389 165.4c-.101-.9-1.101-5.3-11.4-5.4s-19.2 2-20.2 4.7-3 8.9-4.3 15.3c-1.8 9.4-20.6 42.7-31.3 60.2-3.5-6.8-6.5-12.8-7.101-17.601-.899-7.199-2-11.6-.899-20.199 1.1-8.601 6.1-20.8 6.1-21.8-.1-.9-1.1-5.3-11.399-5.4-10.301-.1-19.2 2-20.2 4.7s-2.1 9.1-4.3 15.3C281.9 201.4 256.9 257 250.4 271.5c-3.3 7.4-6.199 13.3-8.3 17.3-2.1 4-.1.3-.3.7-1.8 3.4-2.8 5.3-2.8 5.3v.101c-1.4 2.5-2.9 4.899-3.601 4.899-.5 0-1.5-6.7.2-15.899 3.7-19.301 12.7-49.4 12.601-50.5 0-.5 1.699-5.801-5.801-8.5-7.3-2.7-9.899 1.8-10.5 1.8-.6 0-1.1 1.6-1.1 1.6s8.1-33.899-15.5-33.899c-14.8 0-35.2 16.1-45.3 30.8-6.4 3.5-20 10.899-34.4 18.8-5.5 3-11.2 6.2-16.6 9.1L117.9 251.9c-28.6-30.5-81.5-52.1-79.3-93.1.8-14.9 6-54.2 101.601-101.8 78.3-39 141-28.3 151.899-4.5 15.5 34-33.5 97.2-114.899 106.3-31 3.5-47.301-8.5-51.4-13-4.3-4.7-4.9-4.9-6.5-4-2.6 1.4-1 5.6 0 8.1 2.4 6.3 12.4 17.5 29.4 23.1 14.899 4.9 51.3 7.6 95.3-9.4 49.3-19.1 87.8-72.1 76.5-116.4-11.5-45.1-86.3-59.9-157-34.8C121.4 27.4 75.8 50.8 43 81.5 4 117.9-2.2 149.7.4 162.9c9.101 47.1 74 77.8 100 100.5-1.3.699-2.5 1.399-3.6 2-13 6.399-62.5 32.3-74.9 59.699-14 31 2.2 53.301 13 56.301 33.4 9.3 67.6-7.4 86.1-34.9 18.399-27.5 16.2-63.2 7.7-79.5l-.301-.6 10.2-6c6.601-3.9 13.101-7.5 18.8-10.601-3.199 8.7-5.5 19-6.699 34-1.4 17.601 5.8 40.4 15.3 49.4 4.2 3.899 9.2 4 12.3 4 11 0 16-9.101 21.5-20 6.8-13.3 12.8-28.7 12.8-28.7s-7.5 41.7 13 41.7c7.5 0 15-9.7 18.4-14.7v.1s.2-.3.6-1a36.13 36.13 0 0 0 1.2-1.899v-.2c3-5.2 9.7-17.1 19.7-36.8 12.899-25.4 25.3-57.2 25.3-57.2s1.2 7.8 4.9 20.6c2.199 7.601 6.999 15.9 10.699 24-3 4.2-4.8 6.601-4.8 6.601l.1.1c-2.399 3.2-5.1 6.601-7.899 10-10.2 12.2-22.4 26.101-24 30.101-1.9 4.699-1.5 8.199 2.2 11 2.7 2 7.5 2.399 12.6 2 9.2-.601 15.6-2.9 18.8-4.301 5-1.8 10.7-4.5 16.2-8.5 10-7.399 16.1-17.899 15.5-31.899-.3-7.7-2.8-15.3-5.9-22.5.9-1.3 1.801-2.601 2.7-4 15.8-23.101 28-48.5 28-48.5s1.2 7.8 4.9 20.6c1.899 6.5 5.7 13.601 9.1 20.601-14.8 12.1-24.1 26.1-27.3 35.3-5.9 17-1.3 24.7 7.4 26.5 3.899.8 9.5-1 13.699-2.8 5.2-1.7 11.5-4.601 17.301-8.9 10-7.4 19.6-17.7 19.1-31.6-.3-6.4-2-12.7-4.3-18.7 12.6-5.2 28.899-8.2 49.6-5.7 44.5 5.2 53.3 33 51.601 44.6-1.7 11.601-11 18-14.101 20-3.1 1.9-4.1 2.601-3.8 4 .4 2.101 1.8 2 4.5 1.601 3.7-.601 23.4-9.5 24.2-30.899 1.2-27.504-24.9-57.504-71.2-57.205zM97.4 336.3c-14.7 16.1-35.4 22.2-44.2 17-9.5-5.5-5.801-29.2 12.3-46.3 11-10.4 25.3-20 34.7-25.9 2.1-1.3 5.3-3.199 9.1-5.5.6-.399 1-.6 1-.6.7-.4 1.5-.9 2.3-1.4 6.7 24.4.3 45.8-15.2 62.7zm107.5-73.1c-5.1 12.5-15.9 44.6-22.4 42.8-5.601-1.5-9-25.8-1.101-49.8 4-12.101 12.5-26.5 17.5-32.101 8.101-9 16.9-12 19.101-8.3 2.6 4.801-9.9 39.601-13.1 47.401zm88.7 42.4c-2.2 1.101-4.2 1.9-5.1 1.301-.7-.4.899-1.9.899-1.9s11.1-11.9 15.5-17.4c2.5-3.199 5.5-6.899 8.7-11.1v1.2C313.6 292.1 299.8 301.7 293.6 305.6zm68.399-15.6c-1.6-1.2-1.399-4.9 4-16.5 2.101-4.6 6.9-12.3 15.2-19.6 1 3 1.601 5.899 1.5 8.6-.099 18-12.899 24.7-20.7 27.5z" /></symbol><symbol viewBox="0 0 1200 1200" id="webpack"><path fill="#fff" d="M600 0l530.3 300v600L600 1200 69.7 900V300z" /><path fill="#8ed6fb" d="M1035.6 879.3l-418.1 236.5V931.6L878 788.3l157.6 91zm28.6-25.9V358.8l-153 88.3V765l153 88.4zm-901.5 25.9l418.1 236.5V931.6L320.3 788.3l-157.6 91zm-28.6-25.9V358.8l153 88.3V765l-153 88.4zM152 326.8L580.8 84.2v178.1L306.1 413.4l-2.1 1.2-152-87.8zm894.3 0L617.5 84.2v178.1l274.7 151.1 2.1 1.2 152-87.8z" /><path fill="#1c78c0" d="m580.8 889.7l-257-141.3v-280l257 148.4v272.9m36.7 0l257-141.3v-280l-257 148.4v272.9m-276.3-453.7l258-141.9 258 141.9-258 149-258-149" /></symbol><symbol viewBox="0 0 122.522 122.523" id="wordpress"><defs><path id="wordpress_a" d="M0 0h122.522v122.523H0z" /></defs><g clip-path="url(#wordpress_b)"><path d="M313.19 48.227h-21.257v2.255c6.649 0 7.718 1.425 7.718 9.856V75.54c0 8.431-1.067 9.976-7.718 9.976-5.104-.713-8.55-3.444-13.3-8.67l-5.462-5.937c7.361-1.308 11.28-5.938 11.28-11.164 0-6.53-5.58-11.518-16.031-11.518h-20.9v2.255c6.649 0 7.718 1.425 7.718 9.856V75.54c0 8.431-1.068 9.976-7.718 9.976v2.256h23.631v-2.256c-6.648 0-7.718-1.545-7.718-9.976v-4.273h2.019l13.182 16.505h34.557c16.981 0 24.345-9.024 24.345-19.832-.002-10.807-7.364-19.713-24.346-19.713zm-49.756 19.355V51.79h4.868c5.343 0 7.719 3.681 7.719 7.956 0 4.157-2.376 7.837-7.719 7.837l-4.868-.001zm50.113 16.508h-.832c-4.274 0-4.868-1.067-4.868-6.53V51.79h5.7c12.35 0 14.604 9.024 14.604 16.031.001 7.243-2.255 16.269-14.604 16.269zM181.378 71.978l8.193-24.228c2.376-7.006 1.308-9.023-6.293-9.023v-2.376h22.325v2.376c-7.48 0-9.262 1.78-12.23 10.449L179.834 89.79h-1.543l-12.114-37.17-12.349 37.17h-1.545l-13.181-40.613c-2.85-8.669-4.75-10.449-11.638-10.449v-2.376h26.363v2.376c-7.008 0-8.908 1.662-6.413 9.023l7.956 24.228 11.993-35.627h2.258l11.757 35.626zM221.752 89.314c-13.062 0-23.75-9.618-23.75-21.376 0-11.638 10.688-21.257 23.75-21.257s23.75 9.619 23.75 21.257c0 11.758-10.687 21.376-23.75 21.376zm0-38.949c-10.924 0-14.726 9.854-14.726 17.574 0 7.839 3.802 17.576 14.726 17.576 11.045 0 14.845-9.737 14.845-17.576 0-7.72-3.8-17.574-14.845-17.574z" fill="#00749a" /><path d="M366.864 85.396v2.375H339.67v-2.375c7.957 0 9.382-2.019 9.382-13.896V52.502c0-11.877-1.425-13.775-9.382-13.775V36.35h24.581c12.23 0 19.002 6.294 19.002 14.727 0 8.194-6.771 14.606-19.002 14.606h-6.77V71.5c.001 11.878 1.425 13.896 9.383 13.896zm-2.613-44.771h-6.77v20.664h6.77c6.65 0 9.737-4.631 9.737-10.212.001-5.7-3.086-10.452-9.737-10.452zM464.833 76.609l-.595 2.137c-1.067 3.919-2.376 5.344-10.807 5.344h-1.663c-6.174 0-7.243-1.425-7.243-9.855v-5.462c9.263 0 9.976.83 9.976 7.006h2.257V58.083h-2.257c0 6.175-.713 7.006-9.976 7.006V51.79h6.53c8.433 0 9.738 1.425 10.807 5.344l.596 2.256h1.898l-.83-11.162h-34.914v2.255c6.649 0 7.719 1.425 7.719 9.856V75.54c0 7.713-.907 9.656-6.15 9.934-4.983-.762-8.404-3.479-13.085-8.628l-5.463-5.937c7.363-1.308 11.282-5.938 11.282-11.164 0-6.53-5.581-11.518-16.031-11.518h-20.9v2.255c6.649 0 7.719 1.425 7.719 9.856V75.54c0 8.431-1.068 9.976-7.719 9.976v2.256h23.632v-2.256c-6.648 0-7.719-1.545-7.719-9.976v-4.273h2.02l13.181 16.505h48.806l.713-11.161-1.784-.002zm-62.937-9.027V51.79h4.868c5.344 0 7.72 3.681 7.72 7.956 0 4.157-2.376 7.837-7.72 7.837l-4.868-.001zM488.939 89.314c-4.75 0-8.907-2.493-10.688-4.038-.595.595-1.662 2.376-1.899 4.038h-2.257V72.927h2.375c.951 7.838 6.412 12.469 13.419 12.469 3.8 0 6.888-2.138 6.888-5.699 0-3.087-2.73-5.463-7.6-7.719l-6.77-3.206c-4.751-2.258-8.312-6.178-8.312-11.401 0-5.7 5.344-10.568 12.707-10.568 3.919 0 7.243 1.426 9.263 3.088.593-.476 1.188-1.782 1.544-3.208h2.256v14.014h-2.494c-.832-5.582-3.919-10.213-10.212-10.213-3.325 0-6.413 1.899-6.413 4.87 0 3.087 2.493 4.749 8.194 7.361l6.53 3.206c5.701 2.731 7.956 7.127 7.956 10.689 0 7.48-6.531 12.704-14.487 12.704zM525.514 89.314c-4.751 0-8.908-2.493-10.688-4.038-.594.595-1.662 2.376-1.898 4.038h-2.257V72.927h2.375c.95 7.838 6.411 12.469 13.419 12.469 3.8 0 6.888-2.138 6.888-5.699 0-3.087-2.731-5.463-7.601-7.719l-6.77-3.206c-4.75-2.258-8.312-6.178-8.312-11.401 0-5.7 5.344-10.568 12.707-10.568 3.919 0 7.242 1.426 9.263 3.088.593-.476 1.187-1.782 1.542-3.208h2.257v14.014h-2.493c-.832-5.582-3.919-10.213-10.212-10.213-3.325 0-6.414 1.899-6.414 4.87 0 3.087 2.494 4.749 8.195 7.361l6.53 3.206c5.7 2.731 7.955 7.127 7.955 10.689 0 7.48-6.531 12.704-14.486 12.704z" fill="#464342" /><g fill="#00749a"><path d="M8.708 61.26c0 20.803 12.089 38.779 29.619 47.299L13.258 39.872a52.354 52.354 0 0 0-4.55 21.388zM96.74 58.608c0-6.495-2.333-10.993-4.334-14.494-2.664-4.329-5.16-7.995-5.16-12.324 0-4.831 3.663-9.328 8.824-9.328.233 0 .454.029.682.042-9.351-8.566-21.808-13.796-35.49-13.796-18.36 0-34.513 9.42-43.91 23.688 1.233.037 2.396.062 3.382.062 5.497 0 14.006-.667 14.006-.667 2.833-.167 3.167 3.994.338 4.329 0 0-2.848.335-6.016.501L48.2 93.546l11.502-34.493-8.189-22.433c-2.83-.166-5.511-.501-5.511-.501-2.832-.166-2.5-4.496.332-4.329 0 0 8.679.667 13.843.667 5.496 0 14.006-.667 14.006-.667 2.835-.167 3.168 3.994.337 4.329 0 0-2.853.335-6.015.501l18.992 56.494 5.241-17.517c2.273-7.269 4.002-12.49 4.002-16.989z" /><path d="M62.184 65.857l-15.768 45.818a52.516 52.516 0 0 0 14.846 2.142c6.12 0 11.989-1.059 17.452-2.979a4.451 4.451 0 0 1-.374-.724L62.184 65.857zM107.376 36.046c.226 1.674.354 3.472.354 5.404 0 5.333-.996 11.328-3.996 18.824l-16.053 46.413c15.624-9.111 26.133-26.038 26.133-45.427a52.268 52.268 0 0 0-6.438-25.214z" /><path d="M61.262 0C27.483 0 0 27.481 0 61.26c0 33.783 27.482 61.264 61.262 61.264 33.778 0 61.265-27.48 61.265-61.264C122.526 27.481 95.04 0 61.262 0zm0 119.715c-32.23 0-58.453-26.223-58.453-58.455 0-32.229 26.222-58.45 58.453-58.45 32.229 0 58.45 26.221 58.45 58.45 0 32.232-26.222 58.455-58.45 58.455z" /></g></g></symbol><clipPath id="wordpress_b"><use xlink:href="#wordpress_a" overflow="visible" /></clipPath></defs><use id="1c_bitrix-usage" xlink:href="#1c_bitrix" class="sprite-symbol-usage" /><use id="bootstrap5-usage" xlink:href="#bootstrap5" class="sprite-symbol-usage" /><use id="css-usage" xlink:href="#css" class="sprite-symbol-usage" /><use id="github-usage" xlink:href="#github" class="sprite-symbol-usage" /><use id="html-usage" xlink:href="#html" class="sprite-symbol-usage" /><use id="javascript-usage" xlink:href="#javascript" class="sprite-symbol-usage" /><use id="joomla-usage" xlink:href="#joomla" class="sprite-symbol-usage" /><use id="opencart-usage" xlink:href="#opencart" class="sprite-symbol-usage" /><use id="phpstorm-usage" xlink:href="#phpstorm" class="sprite-symbol-usage" /><use id="sass-usage" xlink:href="#sass" class="sprite-symbol-usage" /><use id="webpack-usage" xlink:href="#webpack" class="sprite-symbol-usage" /><use id="wordpress-usage" xlink:href="#wordpress" class="sprite-symbol-usage" /></svg>