<svg version="1.1" xmlns="http://www.w3.org/2000/svg" xmlns:xlink="http://www.w3.org/1999/xlink" x="0px" y="0px" width="640px" height="199.937px" viewBox="0 0 640 199.937" enable-background="new 0 0 640 199.937" xml:space="preserve">
						<g id="Слой_1__x28_копия_x29_">
							<g id="XMLID_35_">
								<path id="XMLID_36_" fill="#E60019" d="M74.802,86.359c-4.953,1.778-14.732,4.699-26.289,4.699
									c-12.954,0-23.622-3.302-32.004-11.303C9.144,72.643,4.572,61.214,4.572,47.879C4.699,22.352,22.225,3.683,50.927,3.683
									c9.906,0,17.653,2.159,21.335,3.937l-2.667,9.017c-4.572-2.032-10.287-3.683-18.923-3.683c-20.828,0-34.417,12.954-34.417,34.417
									c0,21.717,13.081,34.544,33.02,34.544c7.239,0,12.192-1.016,14.732-2.286V54.101H46.608v-8.89h28.194V86.359z"></path>
                                <path id="XMLID_67_" fill="#E60019" d="M163.829,52.577c-0.635-11.938-1.397-26.289-1.27-36.957h-0.381
									c-2.921,10.033-6.477,20.701-10.795,32.512L136.27,89.661h-8.382l-13.843-40.767c-4.064-12.065-7.493-23.114-9.906-33.274h-0.254
									c-0.254,10.668-0.889,25.019-1.651,37.846l-2.286,36.703H89.407l5.969-85.597h14.097l14.605,41.401
									c3.556,10.541,6.477,19.939,8.636,28.829h0.381c2.159-8.636,5.207-18.034,9.017-28.829l15.24-41.401h14.097l5.334,85.597h-10.795
									L163.829,52.577z"></path>
                                <path id="XMLID_69_" fill="#222222" d="M219.198,76.707c4.953,3.048,12.192,5.588,19.812,5.588
									c11.303,0,17.907-5.969,17.907-14.605c0-8-4.572-12.573-16.129-17.018c-13.97-4.953-22.606-12.192-22.606-24.257
									c0-13.335,11.049-23.241,27.686-23.241c8.763,0,15.113,2.032,18.923,4.191l-3.048,9.017c-2.794-1.524-8.509-4.064-16.256-4.064
									c-11.684,0-16.129,6.985-16.129,12.827c0,8.001,5.207,11.938,17.018,16.51c14.478,5.588,21.844,12.573,21.844,25.146
									c0,13.208-9.779,24.638-29.972,24.638c-8.255,0-17.272-2.413-21.844-5.461L219.198,76.707z"></path>
                                <path id="XMLID_71_" fill="#222222" d="M286,28.702l13.462,36.321c1.397,4.064,2.921,8.89,3.937,12.573h0.254
									c1.143-3.683,2.413-8.382,3.937-12.827l12.192-36.067h11.811l-16.764,43.814c-8.001,21.082-13.462,31.876-21.082,38.48
									c-5.461,4.826-10.922,6.731-13.716,7.239l-2.794-9.398c2.794-0.889,6.477-2.667,9.779-5.461c3.048-2.413,6.858-6.731,9.398-12.446
									c0.508-1.143,0.889-2.032,0.889-2.667c0-0.635-0.254-1.524-0.762-2.921l-22.733-56.641H286z"></path>
                                <path id="XMLID_73_" fill="#222222" d="M341.752,45.339c0-6.35-0.127-11.557-0.508-16.637h9.906l0.635,10.16h0.254
									c3.048-5.842,10.16-11.557,20.32-11.557c8.509,0,21.717,5.08,21.717,26.162v36.703H382.9V54.736
									c0-9.906-3.684-18.161-14.225-18.161c-7.365,0-13.08,5.207-14.985,11.43c-0.508,1.397-0.762,3.302-0.762,5.207v36.957h-11.177
									V45.339z"></path>
                                <path id="XMLID_75_" fill="#222222" d="M418.46,61.467c0.254,15.113,9.905,21.336,21.081,21.336
									c8.001,0,12.827-1.397,17.019-3.175l1.904,8.001c-3.937,1.778-10.667,3.81-20.446,3.81c-18.923,0-30.226-12.446-30.226-30.988
									s10.922-33.146,28.828-33.146c20.066,0,25.4,17.653,25.4,28.956c0,2.286-0.254,4.064-0.381,5.207H418.46z M451.226,53.466
									c0.127-7.112-2.921-18.161-15.494-18.161c-11.303,0-16.256,10.414-17.145,18.161H451.226z"></path>
                                <path id="XMLID_78_" fill="#222222" d="M475.862,47.879c0-7.239-0.127-13.462-0.508-19.177h9.779l0.381,12.065h0.508
									c2.794-8.255,9.525-13.462,17.018-13.462c1.271,0,2.159,0.127,3.176,0.381v10.541c-1.144-0.254-2.286-0.381-3.811-0.381
									c-7.874,0-13.462,5.969-14.985,14.351c-0.254,1.524-0.508,3.302-0.508,5.207v32.766h-11.05V47.879z"></path>
                                <path id="XMLID_80_" fill="#222222" d="M569.334,28.702c-0.254,4.445-0.508,9.398-0.508,16.891v35.687
									c0,14.097-2.794,22.733-8.763,28.067c-5.97,5.588-14.605,7.366-22.353,7.366c-7.365,0-15.493-1.778-20.446-5.08l2.794-8.509
									c4.063,2.54,10.414,4.826,18.033,4.826c11.431,0,19.813-5.969,19.813-21.463v-6.858h-0.254
									c-3.43,5.715-10.033,10.287-19.559,10.287c-15.239,0-26.161-12.954-26.161-29.972c0-20.828,13.589-32.639,27.686-32.639
									c10.668,0,16.51,5.588,19.177,10.667h0.254l0.508-9.271H569.334z M557.777,52.959c0-1.905-0.127-3.556-0.636-5.08
									c-2.031-6.477-7.492-11.811-15.62-11.811c-10.668,0-18.288,9.017-18.288,23.241c0,12.065,6.096,22.098,18.161,22.098
									c6.857,0,13.08-4.318,15.493-11.43c0.636-1.905,0.89-4.064,0.89-5.969V52.959z"></path>
                                <path id="XMLID_83_" fill="#222222" d="M591.432,28.702l13.462,36.321c1.396,4.064,2.921,8.89,3.937,12.573h0.254
									c1.144-3.683,2.413-8.382,3.938-12.827l12.191-36.067h11.812l-16.764,43.814c-8.001,21.082-13.462,31.876-21.082,38.48
									c-5.461,4.826-10.922,6.731-13.716,7.239l-2.794-9.398c2.794-0.889,6.477-2.667,9.778-5.461c3.048-2.413,6.858-6.731,9.398-12.446
									c0.508-1.143,0.889-2.032,0.889-2.667c0-0.635-0.254-1.524-0.762-2.921l-22.733-56.641H591.432z"></path>
							</g>
                            <g id="XMLID_39_">
								<path id="XMLID_40_" fill="#555555" d="M15.587,154.265H5.953v-3.478h23.451v3.478h-9.681v28.198h-4.136V154.265z"></path>
                                <path id="XMLID_42_" fill="#555555" d="M67.005,150.788v13.253h15.321v-13.253h4.136v31.676h-4.136v-14.851H67.005v14.851h-4.089
									v-31.676H67.005z"></path>
                                <path id="XMLID_44_" fill="#555555" d="M139.948,167.613h-12.313v11.42h13.723v3.431h-17.812v-31.676h17.107v3.431h-13.018v10.01
									h12.313V167.613z"></path>
                                <path id="XMLID_46_" fill="#555555" d="M216.605,151.164c1.974-0.329,4.559-0.611,7.849-0.611c4.042,0,7.002,0.94,8.882,2.632
									c1.739,1.504,2.773,3.807,2.773,6.627c0,2.866-0.846,5.122-2.444,6.768c-2.162,2.303-5.687,3.478-9.682,3.478
									c-1.222,0-2.35-0.047-3.29-0.282v12.689h-4.089V151.164z M220.694,166.437c0.893,0.235,2.021,0.329,3.384,0.329
									c4.935,0,7.942-2.396,7.942-6.768c0-4.183-2.961-6.203-7.473-6.203c-1.786,0-3.149,0.141-3.854,0.329V166.437z"></path>
                                <path id="XMLID_49_" fill="#555555" d="M271.595,150.788h4.089v28.245h13.535v3.431h-17.624V150.788z"></path>
                                <path id="XMLID_51_" fill="#555555" d="M328.887,172.5l-3.29,9.964h-4.229l10.763-31.676h4.935l10.81,31.676h-4.371l-3.384-9.964
									H328.887z M339.273,169.304l-3.102-9.117c-0.705-2.068-1.176-3.948-1.646-5.781h-0.094c-0.47,1.88-0.987,3.807-1.598,5.734
									l-3.103,9.164H339.273z"></path>
                                <path id="XMLID_54_" fill="#555555" d="M384.912,154.265h-9.635v-3.478h23.451v3.478h-9.682v28.198h-4.135V154.265z"></path>
                                <path id="XMLID_56_" fill="#555555" d="M432.24,150.788h17.061v3.431h-12.972v10.527h11.984v3.384h-11.984v14.334h-4.089V150.788z
									"></path>
                                <path id="XMLID_58_" fill="#555555" d="M512.186,166.297c0,10.903-6.626,16.684-14.71,16.684c-8.365,0-14.239-6.485-14.239-16.072
									c0-10.058,6.25-16.638,14.71-16.638C506.594,150.27,512.186,156.897,512.186,166.297z M487.606,166.813
									c0,6.768,3.666,12.831,10.104,12.831c6.485,0,10.151-5.969,10.151-13.16c0-6.297-3.29-12.877-10.104-12.877
									C490.99,153.607,487.606,159.858,487.606,166.813z"></path>
                                <path id="XMLID_61_" fill="#555555" d="M547.484,151.211c2.068-0.423,5.029-0.658,7.849-0.658c4.371,0,7.19,0.799,9.165,2.585
									c1.598,1.41,2.49,3.571,2.49,6.016c0,4.183-2.632,6.956-5.969,8.083v0.142c2.444,0.846,3.901,3.102,4.653,6.392
									c1.034,4.418,1.786,7.473,2.443,8.694h-4.229c-0.517-0.893-1.222-3.619-2.115-7.566c-0.939-4.371-2.631-6.016-6.344-6.157h-3.854
									v13.724h-4.089V151.211z M551.573,165.638h4.183c4.371,0,7.145-2.396,7.145-6.016c0-4.089-2.961-5.874-7.285-5.922
									c-1.974,0-3.384,0.188-4.042,0.377V165.638z"></path>
                                <path id="XMLID_64_" fill="#555555" d="M629.451,168.552c-0.235-4.418-0.518-9.729-0.471-13.676h-0.141
									c-1.081,3.713-2.396,7.66-3.995,12.031l-5.593,15.367h-3.102l-5.123-15.086c-1.504-4.465-2.772-8.553-3.665-12.313h-0.095
									c-0.094,3.947-0.328,9.258-0.61,14.005l-0.846,13.582h-3.901l2.209-31.676h5.217l5.404,15.321c1.316,3.9,2.397,7.378,3.196,10.668
									h0.141c0.799-3.196,1.927-6.674,3.337-10.668l5.64-15.321h5.217l1.974,31.676h-3.994L629.451,168.552z"></path>
							</g>
						</g>
						</svg>